<svg width="16" height="18" viewBox="0 0 16 18" fill="none" xmlns="http://www.w3.org/2000/svg">
<path d="M9.02827 15.8766L15.4999 9.24998M11.3333 3.99998L4.3216 11.155C4.00915 11.4675 3.83362 11.8914 3.83362 12.3333C3.83362 12.7753 4.00915 13.1991 4.3216 13.5116C4.63415 13.8241 5.058 13.9996 5.49994 13.9996C5.94188 13.9996 6.36572 13.8241 6.67827 13.5116L13.6899 6.35665C14.3148 5.73155 14.6659 4.88386 14.6659 3.99998C14.6659 3.1161 14.3148 2.26841 13.6899 1.64331C13.0648 1.01841 12.2171 0.667358 11.3333 0.667358C10.4494 0.667358 9.60169 1.01841 8.9766 1.64331L1.9641 8.79748C1.02634 9.73524 0.499512 11.0071 0.499512 12.3333C0.499512 13.6595 1.02634 14.9314 1.9641 15.8691C2.90186 16.8069 4.17374 17.3337 5.49994 17.3337C6.82613 17.3337 8.09801 16.8069 9.03577 15.8691" stroke="#b2ddb9" stroke-linecap="round" stroke-linejoin="round"/>
</svg>
