<?xml version="1.0" encoding="utf-8"?>
<svg width="18" height="18" viewBox="0 0 18 18" fill="none" stroke="none" version="1.1" xmlns:xlink="http://www.w3.org/1999/xlink" xmlns="http://www.w3.org/2000/svg">
  <path id="Фигура" d="M13 0C13.5523 0 14 0.447715 14 1C14 1 14 2 14 2C14 2 16 2 16 2C17.1046 2 18 2.89543 18 4C18 4 18 9.528 18 9.528C15.6267 7.40645 12.0096 7.50768 9.75864 9.75864C7.50768 12.0096 7.40646 15.6267 9.528 18C9.528 18 2 18 2 18C0.895431 18 0 17.1046 0 16C0 16 0 4 0 4C0 2.89543 0.895431 2 2 2C2 2 4 2 4 2C4 2 4 1 4 1C4 0.447715 4.44772 0 5 0C5.55229 0 6 0.447715 6 1C6 1 6 2 6 2L12 2C12 2 12 1 12 1C12 0.447715 12.4477 0 13 0C13 0 13 0 13 0ZM14 10C16.2091 10 18 11.7909 18 14C18 16.2091 16.2091 18 14 18C11.7909 18 10 16.2091 10 14C10 11.7909 11.7909 10 14 10C14 10 14 10 14 10ZM14 11.5C13.493 11.5001 13.0663 11.8795 13.007 12.383C13.007 12.383 13 12.5 13 12.5C13 12.5 13 14 13 14C13.0002 14.5072 13.3797 14.9338 13.8832 14.993C13.8832 14.993 14 15 14 15C14 15 15 15 15 15C15.5291 14.9994 15.9662 14.5868 15.9972 14.0586C16.0282 13.5304 15.6424 13.0695 15.117 13.007C15.117 13.007 15 13 15 13C15 13 15 12.5 15 12.5C15 11.9477 14.5523 11.5 14 11.5C14 11.5 14 11.5 14 11.5ZM5.5 11C5.5 11 5 11 5 11C4.44772 11 4 11.4477 4 12C4 12.5523 4.44772 13 5 13C5 13 5.5 13 5.5 13C6.05228 13 6.5 12.5523 6.5 12C6.5 11.4477 6.05228 11 5.5 11C5.5 11 5.5 11 5.5 11ZM8 7C8 7 5 7 5 7C4.47091 7.00059 4.03383 7.41321 4.00283 7.94139C3.97182 8.46958 4.35761 8.93051 4.883 8.993C4.883 8.993 5 9 5 9C5 9 8 9 8 9C8.52909 8.99941 8.96617 8.58679 8.99717 8.05861C9.02818 7.53042 8.64239 7.06949 8.117 7.007C8.117 7.007 8 7 8 7Z" style="fill:#6b9071;fill-rule:evenodd;mix-blend-mode:normal;" />
</svg>