<svg width="191" height="165" viewBox="0 0 191 165" fill="none" xmlns="http://www.w3.org/2000/svg">
<path d="M185.343 96.386C186.395 100.819 186.568 105.446 185.947 109.967C182.791 116.887 176.973 122.721 169.983 125.898C161.771 129.631 152.07 130.43 143.675 126.795C139.777 125.11 136.568 123.259 135.46 119.231C134.45 115.565 133.119 111.385 136.649 108.612C138.57 107.103 141.045 106.544 143.431 106.016C145.733 105.502 147.911 104.394 149.609 102.723C149.814 102.522 149.987 102.293 150.167 102.068C160.666 97.3747 171.095 88.4802 170.47 79.6879C171.077 80.191 171.688 80.6941 172.316 81.1515C173.682 82.1472 174.967 83.0444 176.171 83.9169C180.602 87.1433 183.836 90.0424 185.343 96.386Z" fill="#02413E"/>
<path d="M151.54 68.5839C139.424 67.8415 127.499 64.2036 117.014 58.1238C111.679 55.0312 106.716 51.3017 102.303 46.9988C101.72 46.4323 101.138 45.8518 100.545 45.2924C100.725 45.1587 100.909 45.0215 101.103 44.8737C106.091 41.1372 116.795 33.4144 122.09 31.7889C123.058 31.4899 123.848 31.3949 124.389 31.5637C127.792 32.6368 130.468 35.2158 133.02 37.7138C142.612 47.1043 152.2 56.5019 161.792 65.8994L162.226 66.3251C162.865 66.9549 163.504 67.5953 164.129 68.2497C159.953 68.7035 155.738 68.8408 151.54 68.5839Z" fill="#EBF2E5"/>
<path d="M133.363 98.2015C122.369 98.8594 98.4267 46.9073 98.4267 46.9073C98.4267 46.9073 99.2281 46.2846 100.545 45.2924C101.134 45.8518 101.72 46.4288 102.303 46.9988C106.716 51.3017 111.68 55.0277 117.014 58.1238C127.499 64.2071 139.428 67.8415 151.54 68.5839C155.738 68.8408 159.953 68.7035 164.129 68.2462C166.339 70.5507 168.38 73.0346 169.538 75.8986C162.315 93.7156 144.137 97.5541 133.363 98.2015Z" fill="#94A6A5"/>
<path d="M150.167 102.072C144.105 104.781 138.019 106.1 134.033 105.168C123.658 102.761 116.057 90.257 110.539 82.0874C105.12 74.069 100.495 65.5124 96.7816 56.5863C95.6519 53.8807 96.252 48.7967 98.4267 46.9038C98.4267 46.9038 122.369 98.8559 133.363 98.198C144.137 97.5506 162.315 93.7121 169.538 75.8951C169.845 76.641 170.092 77.408 170.265 78.2137C170.371 78.7062 170.434 79.1988 170.47 79.6914C171.095 88.4873 160.666 97.3782 150.167 102.072Z" fill="#02413E"/>
<path d="M190.667 109.362C190.204 118.2 187.147 126.943 181.636 133.92C174.932 142.406 164.839 147.962 154.163 149.693C148.423 150.625 142.513 150.47 136.868 149.028C125.409 146.1 114.493 140.809 106.172 132.305C100.012 126.007 97.1593 114.569 88.1606 112.187C85.0892 111.378 81.8519 111.585 78.6852 111.846C63.2084 113.13 47.855 115.614 32.5229 118.098C26.8391 119.016 20.9823 120.001 16.1211 123.069C9.77357 127.077 7.2812 133.642 6.53278 140.784C6.41628 141.903 6.35274 143.043 6.3139 144.183C6.09149 150.639 6.97052 157.296 7.48947 162.774C7.54596 163.351 7.61302 163.935 7.69775 164.519C6.52216 164.041 5.43486 163.435 4.46402 162.686C2.8083 161.402 1.48793 159.699 0.718323 157.363C-0.4608 153.774 -0.00184631 149.862 0.767761 146.164C1.24081 143.898 1.83391 141.66 2.52937 139.454C3.11894 137.572 3.78618 135.711 4.53461 133.885C6.16914 129.902 8.16731 126.07 10.5079 122.45C11.7506 120.529 13.318 119.058 15.0902 117.908C17.8792 116.103 21.18 115.107 24.5833 114.477C24.735 114.449 24.8868 114.418 25.0422 114.393C27.7181 113.922 30.4435 113.668 32.9995 113.411C42.9691 112.419 53.2705 111.304 63.166 109.355C67.1552 108.57 71.3033 106.85 75.3208 106.427C78.7841 106.062 82.3991 106.575 85.9259 106.121C91.7862 105.368 97.5759 104.243 103.32 102.888C104.368 111.202 105.516 119.952 108.703 127.422C112.428 136.14 124.442 140.489 132.837 142.55C139.908 144.285 147.381 144.489 154.495 142.864C161.069 141.361 167.285 138.255 172.447 133.938C163.564 136.742 153.874 136.977 144.879 134.539C133.377 131.425 123.135 124.266 117.547 113.82C111.701 102.891 107.422 91.2176 103.231 79.5824C100.658 72.4295 98.0207 65.1888 92.8806 59.4292C88.7713 54.8166 86.7731 47.3929 84.3055 41.4856C85.9541 37.7491 88.6195 32.0352 92.2522 27.3699C92.7252 27.106 93.1913 26.8281 93.6467 26.5255C91.7015 29.5266 89.6998 32.6721 89.315 36.2256C88.9266 39.7791 90.7024 43.8393 94.1479 44.835C96.3897 45.4824 98.7868 44.7471 101.117 44.8737C100.923 45.0215 100.739 45.1587 100.559 45.2924C99.2457 46.2846 98.4408 46.9073 98.4408 46.9073C96.2662 48.8002 95.666 53.8807 96.7957 56.5899C100.51 65.5195 105.134 74.0726 110.553 82.091C116.071 90.2571 123.672 102.765 134.048 105.171C138.033 106.1 144.116 104.784 150.181 102.075C150.001 102.3 149.828 102.529 149.623 102.73C147.925 104.401 145.747 105.506 143.445 106.023C141.059 106.554 138.58 107.114 136.663 108.619C133.133 111.392 134.464 115.568 135.474 119.238C136.582 123.266 139.795 125.117 143.689 126.802C152.084 130.437 161.782 129.635 169.997 125.905C176.987 122.728 182.808 116.895 185.961 109.974C186.586 105.453 186.413 100.826 185.357 96.3931C183.85 90.0495 180.616 87.1504 176.189 83.9275C176.627 83.8712 177.061 83.7938 177.499 83.7375C179.447 83.4983 181.664 83.347 184.072 83.2837C184.16 83.8994 184.397 84.5186 184.654 85.0921C188.245 93.2055 191.147 100.144 190.667 109.362Z" fill="#02413E"/>
<path d="M94.1339 44.835C90.6918 43.8393 88.9125 39.7791 89.3009 36.2256C89.6892 32.6721 91.6874 29.5266 93.6326 26.5255C93.1772 26.8281 92.7112 27.106 92.2381 27.3699C93.2407 26.0822 94.3104 24.8613 95.4648 23.7952C95.8319 23.454 96.7075 22.6658 97.5018 21.9235C98.1372 22.1135 98.7727 22.3035 99.4046 22.4934C105.78 24.3898 112.135 26.3249 118.076 29.4281C119.513 30.1775 120.823 30.9727 122.087 31.7854C116.791 33.4109 106.088 41.1337 101.099 44.8702C98.7727 44.7471 96.3756 45.4859 94.1339 44.835Z" fill="#02413E"/>
<path d="M37.3277 12.5435C37.3806 11.7343 37.4759 10.9392 37.6313 10.1686C37.9455 8.57481 38.5033 7.11469 39.3505 5.86919C39.1246 6.80508 38.9516 7.83244 38.7892 8.95479C38.7327 9.33478 38.6939 9.7218 38.6515 10.1053C38.6339 10.2812 38.6056 10.4571 38.588 10.6331C38.5209 11.3367 38.4715 12.0439 38.4574 12.7581V12.8039C38.4468 13.1979 38.4503 13.592 38.4574 13.9861C38.528 17.0259 39.1881 20.0271 40.8897 22.6201C44.4554 28.0595 49.3201 32.6122 54.7674 36.1517C59.3886 39.1634 64.4263 41.4715 69.6406 43.2694C72.4719 44.2545 79.8043 47.794 82.4485 45.4015C82.7274 45.1517 83.3417 43.6564 84.2949 41.4961C86.7591 47.4034 88.7572 54.8307 92.87 59.4397C98.0101 65.1993 100.647 72.4401 103.221 79.5929C107.411 91.2281 111.69 102.902 117.536 113.83C123.125 124.276 133.366 131.436 144.868 134.55C153.863 136.988 163.554 136.749 172.436 133.948C167.275 138.265 161.058 141.372 154.484 142.874C147.371 144.5 139.897 144.296 132.826 142.561C124.431 140.499 112.417 136.151 108.693 127.432C105.505 119.963 104.358 111.212 103.309 102.899C103.051 100.865 102.797 98.8489 102.525 96.8962C100.859 85.0006 98.2078 72.623 90.367 63.4999C86.3319 58.8064 80.7187 56.6884 74.9043 55.1157C69.8418 53.747 65.7714 51.3862 61.0725 49.0711C59.1768 48.1388 57.3586 47.0692 55.6252 45.8765C48.2187 40.7748 42.1465 33.5129 39.1917 24.9774C38.0549 21.6948 37.0417 16.9028 37.3277 12.5435Z" fill="#02413E"/>
<path d="M95.4683 23.7988C94.3139 24.8648 93.2442 26.0822 92.2416 27.3734C88.6089 32.0423 85.9436 37.7526 84.2949 41.4891C83.3417 43.6493 82.7239 45.1446 82.4485 45.3944C79.8043 47.7869 72.4754 44.2475 69.6406 43.2623C64.4263 41.4644 59.3886 39.1564 54.7674 36.1447C49.3166 32.6052 44.4553 28.0525 40.8897 22.6131C39.1881 20.02 38.528 17.0189 38.4573 13.979C38.4503 13.585 38.4468 13.1909 38.4573 12.7968C38.5032 13.2718 38.7574 15.2034 40.3673 20.4633C42.2807 26.6944 64.1227 40.0852 70.8444 41.957C77.5661 43.8288 81.4707 41.3378 81.4707 41.3378C84.7433 34.5438 87.4757 29.8327 89.7351 26.5853C96.5486 16.7937 99.0657 20.3015 99.0657 20.3015C99.0728 20.1608 99.041 20.0236 98.9986 19.8934C99.3587 20.7554 99.4717 21.6209 99.4081 22.4934C98.7727 22.3035 98.1407 22.1135 97.5053 21.9235C96.7074 22.6729 95.8354 23.4575 95.4683 23.7988Z" fill="#02413E"/>
<path d="M89.7351 26.5888C85.9612 26.8281 82.1697 26.7718 78.4063 26.4129C63.9144 25.0302 51.3041 19.2741 39.6824 10.8055C39.3152 10.5381 38.9834 10.3234 38.648 10.1053C38.6904 9.7218 38.7292 9.33478 38.7857 8.95479C38.9481 7.83244 39.1246 6.8086 39.347 5.86919C40.1237 2.61823 41.5852 0.588134 46.0687 0.651464C53.1117 0.74646 92.4817 15.5025 95.3377 17.1279C96.7392 17.9266 98.5079 18.764 98.9492 19.7808C98.9527 19.7913 98.9633 19.7984 98.9669 19.8125C98.981 19.8406 98.9845 19.8687 98.9951 19.8934C99.0375 20.0271 99.0692 20.1643 99.0622 20.3015C99.0657 20.305 96.5451 16.7972 89.7351 26.5888Z" fill="#EBF2E5"/>
<path d="M38.5845 10.6331C38.6021 10.4571 38.6269 10.2812 38.6481 10.1053C38.9834 10.3234 39.3153 10.5381 39.6824 10.8055C51.3042 19.2777 63.9145 25.0302 78.4064 26.4129C82.1697 26.7718 85.9612 26.8281 89.7351 26.5888C87.4722 29.8363 84.7398 34.5473 81.4707 41.3413C81.4707 41.3413 77.5697 43.8288 70.8445 41.9605C64.1227 40.0888 42.2807 26.6979 40.3673 20.4669C38.7575 15.2069 38.5068 13.2753 38.4574 12.8004V12.7546C38.4715 12.0439 38.5174 11.3332 38.5845 10.6331Z" fill="#94A6A5"/>
</svg>
