<svg width="41" height="40" viewBox="0 0 41 40" fill="none" xmlns="http://www.w3.org/2000/svg">
<path d="M20.5002 13.3334C19.1816 13.3334 17.8927 13.7244 16.7964 14.4569C15.7 15.1895 14.8456 16.2306 14.341 17.4488C13.8364 18.667 13.7044 20.0074 13.9616 21.3006C14.2188 22.5938 14.8538 23.7817 15.7861 24.7141C16.7185 25.6464 17.9064 26.2814 19.1996 26.5386C20.4928 26.7958 21.8332 26.6638 23.0514 26.1592C24.2696 25.6547 25.3108 24.8002 26.0433 23.7038C26.7758 22.6075 27.1668 21.3186 27.1668 20C27.1668 18.2319 26.4645 16.5362 25.2142 15.286C23.964 14.0358 22.2683 13.3334 20.5002 13.3334ZM20.5002 23.3334C19.8409 23.3334 19.1964 23.1379 18.6483 22.7716C18.1001 22.4053 17.6729 21.8847 17.4206 21.2757C17.1683 20.6666 17.1023 19.9963 17.2309 19.3497C17.3595 18.7031 17.677 18.1092 18.1431 17.643C18.6093 17.1768 19.2033 16.8594 19.8499 16.7308C20.4965 16.6021 21.1667 16.6681 21.7758 16.9204C22.3849 17.1727 22.9055 17.6 23.2717 18.1481C23.638 18.6963 23.8335 19.3408 23.8335 20C23.8335 20.8841 23.4823 21.7319 22.8572 22.3571C22.2321 22.9822 21.3842 23.3334 20.5002 23.3334Z" fill="#07B96A"/>
<path d="M10.5002 33.3334H7.16683V30C7.16683 29.558 6.99123 29.1341 6.67867 28.8215C6.36611 28.509 5.94219 28.3334 5.50016 28.3334C5.05814 28.3334 4.63421 28.509 4.32165 28.8215C4.00909 29.1341 3.8335 29.558 3.8335 30V35C3.8335 35.4421 4.00909 35.866 4.32165 36.1786C4.63421 36.4911 5.05814 36.6667 5.50016 36.6667H10.5002C10.9422 36.6667 11.3661 36.4911 11.6787 36.1786C11.9912 35.866 12.1668 35.4421 12.1668 35C12.1668 34.558 11.9912 34.1341 11.6787 33.8215C11.3661 33.509 10.9422 33.3334 10.5002 33.3334Z" fill="#07B96A"/>
<path d="M35.5002 28.3334C35.0581 28.3334 34.6342 28.509 34.3217 28.8215C34.0091 29.1341 33.8335 29.558 33.8335 30V33.3334H30.5002C30.0581 33.3334 29.6342 33.509 29.3217 33.8215C29.0091 34.1341 28.8335 34.558 28.8335 35C28.8335 35.4421 29.0091 35.866 29.3217 36.1786C29.6342 36.4911 30.0581 36.6667 30.5002 36.6667H35.5002C35.9422 36.6667 36.3661 36.4911 36.6787 36.1786C36.9912 35.866 37.1668 35.4421 37.1668 35V30C37.1668 29.558 36.9912 29.1341 36.6787 28.8215C36.3661 28.509 35.9422 28.3334 35.5002 28.3334Z" fill="#07B96A"/>
<path d="M5.50016 11.6667C5.94219 11.6667 6.36611 11.4911 6.67867 11.1786C6.99123 10.866 7.16683 10.4421 7.16683 10V6.66671H10.5002C10.9422 6.66671 11.3661 6.49111 11.6787 6.17855C11.9912 5.86599 12.1668 5.44207 12.1668 5.00004C12.1668 4.55801 11.9912 4.13409 11.6787 3.82153C11.3661 3.50897 10.9422 3.33337 10.5002 3.33337H5.50016C5.05814 3.33337 4.63421 3.50897 4.32165 3.82153C4.00909 4.13409 3.8335 4.55801 3.8335 5.00004V10C3.8335 10.4421 4.00909 10.866 4.32165 11.1786C4.63421 11.4911 5.05814 11.6667 5.50016 11.6667Z" fill="#07B96A"/>
<path d="M35.5002 3.33337H30.5002C30.0581 3.33337 29.6342 3.50897 29.3217 3.82153C29.0091 4.13409 28.8335 4.55801 28.8335 5.00004C28.8335 5.44207 29.0091 5.86599 29.3217 6.17855C29.6342 6.49111 30.0581 6.66671 30.5002 6.66671H33.8335V10C33.8335 10.4421 34.0091 10.866 34.3217 11.1786C34.6342 11.4911 35.0581 11.6667 35.5002 11.6667C35.9422 11.6667 36.3661 11.4911 36.6787 11.1786C36.9912 10.866 37.1668 10.4421 37.1668 10V5.00004C37.1668 4.55801 36.9912 4.13409 36.6787 3.82153C36.3661 3.50897 35.9422 3.33337 35.5002 3.33337Z" fill="#07B96A"/>
<path d="M36.4667 18.2001C34.9844 15.2345 32.7055 12.7403 29.8854 10.9971C27.0653 9.25391 23.8154 8.33057 20.5 8.33057C17.1846 8.33057 13.9347 9.25391 11.1146 10.9971C8.2945 12.7403 6.0156 15.2345 4.53333 18.2001L4.01666 19.2501C3.89944 19.4827 3.83838 19.7396 3.83838 20.0001C3.83838 20.2606 3.89944 20.5175 4.01666 20.7501L4.75 22.2501C6.16106 25.0855 8.33687 27.4699 11.0317 29.1339C13.7265 30.7979 16.8329 31.6752 20 31.6668H21C24.1671 31.6752 27.2735 30.7979 29.9683 29.1339C32.6631 27.4699 34.8389 25.0855 36.25 22.2501L36.9833 20.7501C37.1006 20.5175 37.1616 20.2606 37.1616 20.0001C37.1616 19.7396 37.1006 19.4827 36.9833 19.2501L36.4667 18.2001ZM33.2667 20.7501C32.1339 23.0333 30.3845 24.9537 28.2166 26.294C26.0486 27.6342 23.5487 28.3407 21 28.3334H20C17.4512 28.3407 14.9514 27.6342 12.7834 26.294C10.6155 24.9537 8.8661 23.0333 7.73333 20.7501L7.36666 20.0001L7.51666 19.6834C8.72247 17.2725 10.5757 15.245 12.8689 13.8279C15.162 12.4109 17.8044 11.6603 20.5 11.6603C23.1956 11.6603 25.838 12.4109 28.1311 13.8279C30.4243 15.245 32.2775 17.2725 33.4833 19.6834L33.6333 20.0001L33.2667 20.7501Z" fill="#07B96A"/>
</svg>
