<?xml version="1.0" encoding="utf-8"?>
<svg width="18" height="20" viewBox="0 0 18 20" fill="none" stroke="none" version="1.1" xmlns:xlink="http://www.w3.org/1999/xlink" xmlns="http://www.w3.org/2000/svg">
  <path id="Фигура" d="M13.191 0C16.28 0 18 1.78 18 4.83C18 4.83 18 4.83 18 4.83C18 4.83 18 15.16 18 15.16C18 18.26 16.28 20 13.191 20C13.191 20 13.191 20 13.191 20C13.191 20 4.81 20 4.81 20C1.77002 20 0 18.26 0 15.16C0 15.16 0 15.16 0 15.16C0 15.16 0 4.83 0 4.83C0 1.78 1.77002 0 4.81 0C4.81 0 4.81 0 4.81 0C4.81 0 13.191 0 13.191 0ZM5.08002 13.74C4.78003 13.71 4.48999 13.85 4.33002 14.11C4.16998 14.36 4.16998 14.69 4.33002 14.95C4.48999 15.2 4.78003 15.35 5.08002 15.31C5.08002 15.31 5.08002 15.31 5.08002 15.31C5.08002 15.31 12.92 15.31 12.92 15.31C13.319 15.27 13.62 14.929 13.62 14.53C13.62 14.12 13.319 13.78 12.92 13.74C12.92 13.74 12.92 13.74 12.92 13.74C12.92 13.74 5.08002 13.74 5.08002 13.74ZM12.92 9.179C12.92 9.179 5.08002 9.179 5.08002 9.179C4.64899 9.179 4.29999 9.53 4.29999 9.96C4.29999 10.39 4.64899 10.74 5.08002 10.74C5.08002 10.74 5.08002 10.74 5.08002 10.74C5.08002 10.74 12.92 10.74 12.92 10.74C13.35 10.74 13.7 10.39 13.7 9.96C13.7 9.53 13.35 9.179 12.92 9.179C12.92 9.179 12.92 9.179 12.92 9.179L12.92 9.179ZM8.06897 4.65L5.08002 4.65C5.08002 4.65 5.08002 4.66 5.08002 4.66C4.64899 4.66 4.29999 5.01 4.29999 5.44C4.29999 5.87 4.64899 6.22 5.08002 6.22C5.08002 6.22 5.08002 6.22 5.08002 6.22C5.08002 6.22 8.06897 6.22 8.06897 6.22C8.5 6.22 8.84998 5.87 8.84998 5.429C8.84998 5 8.5 4.65 8.06897 4.65C8.06897 4.65 8.06897 4.65 8.06897 4.65L8.06897 4.65Z" style="fill:#6b9071;mix-blend-mode:normal;" />
</svg>