<?xml version="1.0" encoding="utf-8"?>
<svg width="24" height="24" viewBox="0 0 24 24" fill="none" stroke="none" version="1.1" xmlns:xlink="http://www.w3.org/1999/xlink" xmlns="http://www.w3.org/2000/svg">
  <g id="Группа">
    <path id="Фигура" d="M24 0L24 24L0 24L0 0L24 0ZM12.593 23.258L12.582 23.26L12.511 23.295L12.491 23.299L12.477 23.295C12.477 23.295 12.406 23.26 12.406 23.26C12.396 23.256 12.387 23.259 12.382 23.265C12.382 23.265 12.378 23.275 12.378 23.275L12.361 23.703L12.366 23.723L12.376 23.736L12.48 23.81L12.495 23.814L12.507 23.81L12.611 23.736L12.623 23.72L12.627 23.703C12.627 23.703 12.61 23.276 12.61 23.276C12.608 23.266 12.601 23.259 12.593 23.258M12.858 23.145L12.845 23.147L12.66 23.24L12.65 23.25L12.647 23.261L12.665 23.691L12.67 23.703L12.678 23.71C12.678 23.71 12.879 23.803 12.879 23.803C12.891 23.807 12.902 23.803 12.908 23.795C12.908 23.795 12.912 23.781 12.912 23.781C12.912 23.781 12.878 23.167 12.878 23.167C12.875 23.155 12.868 23.147 12.858 23.145M12.143 23.147C12.1337 23.1428 12.1227 23.1452 12.116 23.153C12.116 23.153 12.11 23.167 12.11 23.167C12.11 23.167 12.076 23.781 12.076 23.781C12.076 23.793 12.083 23.801 12.093 23.805C12.093 23.805 12.108 23.803 12.108 23.803L12.309 23.71L12.319 23.702L12.323 23.691L12.34 23.261L12.337 23.249L12.327 23.239C12.327 23.239 12.143 23.147 12.143 23.147Z" style="mix-blend-mode:normal;" />
    <path id="Фигура" d="M11 0C12.0466 -0.000331163 12.9165 0.806323 12.995 1.85C12.995 1.85 13 2 13 2L13 18L7 18C7 18 7 2 7 2C7 0.952742 7.80693 0.0831189 8.85063 0.00495291C8.85063 0.00495291 9 0 9 0C9 0 11 0 11 0ZM18 5C19.1046 5 20 5.89543 20 7C20 7 20 16 20 16C20 17.1046 19.1046 18 18 18C18 18 15 18 15 18L15 5C15 5 18 5 18 5ZM5 8L5 18C5 18 2 18 2 18C0.89543 18 0 17.1046 0 16C0 16 0 10 0 10C0 8.89543 0.895431 8 2 8C2 8 5 8 5 8Z" style="fill:#6b9071;mix-blend-mode:normal;" transform="translate(2 3)" />
  </g>
</svg>