<?xml version="1.0" encoding="utf-8"?>
<svg width="185.117" height="185.117" viewBox="0 0 185.117 185.117" fill="none" stroke="none" version="1.1" xmlns:xlink="http://www.w3.org/1999/xlink" xmlns="http://www.w3.org/2000/svg">
  <g id="Группа">
    <path id="Группа" d="M149.962 149.962C184.268 115.658 184.268 60.0365 149.962 25.7295C115.655 -8.5765 60.0355 -8.5765 25.7295 25.7295C-8.5765 60.0365 -8.5765 115.658 25.7295 149.962C60.0345 184.268 115.655 184.268 149.962 149.962ZM128.99 171.712C137.927 167.213 146.312 161.237 153.775 153.775C161.237 146.313 167.212 137.927 171.711 128.99L185.117 142.396L156.478 156.478L142.395 185.117L128.99 171.712Z" style="fill:#6B9071;fill-rule:evenodd;mix-blend-mode:normal;" />
    <path id="Путь" d="M139.617 24.1931C171.129 55.7061 171.129 106.797 139.617 138.31C108.104 169.823 57.0117 169.823 25.4987 138.31C-6.01427 106.797 -4.6299 76.2628 9.83695 46.2276C13.6732 38.2631 -6.01427 55.7061 25.4987 24.1931C57.0117 -7.31991 28.6704 21.1469 30.3236 19.7399C62.0279 -7.2425 108.104 -7.31991 139.617 24.1931C139.617 24.1931 139.617 24.1931 139.617 24.1931Z" style="fill:#E3EED4;mix-blend-mode:normal;" transform="translate(5.288 6.595)" />
    <path id="Группа" d="M120.677 20.631C130.987 30.941 137.445 43.641 140.06 56.948L73.2476 0C90.4776 0.627014 107.524 7.47702 120.677 20.631ZM20.631 120.677C7.478 107.523 0.627014 90.4778 0 73.2478L56.948 140.06C43.642 137.444 30.94 130.986 20.631 120.677Z" style="fill:none;stroke-width:1;stroke:#6B9071;stroke-linejoin:round;mix-blend-mode:normal;" transform="translate(17.192 17.193)" />
    <path id="Путь" d="M101.858 17.4758C125.159 40.7778 125.159 78.5558 101.858 101.858C78.5557 125.159 40.7777 125.159 17.4757 101.858C-5.82525 78.5558 -5.82525 40.7777 17.4757 17.4757C40.7777 -5.82525 78.5558 -5.82525 101.858 17.4757C101.858 17.4757 101.858 17.4758 101.858 17.4758Z" style="fill:#6B9071;mix-blend-mode:normal;" transform="translate(28.179 28.18)" />
    <path id="Путь" d="M92.7382 15.9112C113.953 37.1273 113.953 71.5232 92.7382 92.7382C71.5222 113.953 37.1262 113.953 15.9112 92.7382C-5.30375 71.5232 -5.30375 37.1273 15.9112 15.9112C37.1262 -5.30375 71.5222 -5.30375 92.7382 15.9112C92.7382 15.9112 92.7382 15.9112 92.7382 15.9112Z" style="fill:#FFFFFF;mix-blend-mode:normal;" transform="translate(33.521 33.522)" />
    <path id="Путь" d="M83.0295 14.2448C102.023 33.2387 102.023 64.0348 83.0295 83.0288C64.0355 102.023 33.2395 102.023 14.2455 83.0288C-4.7485 64.0348 -4.7485 33.2387 14.2455 14.2448C33.2395 -4.74825 64.0355 -4.74825 83.0295 14.2448C83.0295 14.2448 83.0295 14.2448 83.0295 14.2448Z" style="fill:#6B9071;mix-blend-mode:normal;" transform="translate(39.209 39.21)" />
    <path id="Путь" d="M68.1115 11.6857C83.6935 27.2667 83.6935 52.5297 68.1115 68.1107C52.5305 83.6927 27.2675 83.6927 11.6865 68.1107C-3.8955 52.5297 -3.8955 27.2667 11.6865 11.6857C27.2675 -3.89525 52.5305 -3.89525 68.1115 11.6857C68.1115 11.6857 68.1115 11.6857 68.1115 11.6857Z" style="fill:#FFFFFF;mix-blend-mode:normal;" transform="translate(47.947 47.948)" />
    <g id="Группа" transform="translate(78.022 76.877)">
      <path id="Фигура" d="M7.20895 2.95157C7.26096 1.97156 6.30194 1.00656 4.37494 0.813568C2.76794 0.654572 1.53894 1.23056 1.37393 2.40558C1.21094 3.56757 2.26395 4.49057 4.08295 4.67059C5.88794 4.8476 7.15094 4.0596 7.20895 2.9516C7.20895 2.9516 7.20895 2.95157 7.20895 2.95157ZM8.76498 4.79462C8.67999 7.83063 6.33698 9.38263 2.922 9.0126C1.79001 8.88962 0.73999 8.6066 0 8.14859C0.252014 7.8876 0.377014 7.75558 0.623993 7.49158C1.22198 7.88559 2.064 8.11057 2.98898 8.21158C5.67297 8.50256 7.43198 7.31958 7.54297 4.89758C7.55197 4.69458 7.54697 4.43857 7.52597 4.16959C6.90198 5.12259 5.47696 5.59259 3.82196 5.4256C1.45096 5.18561 -0.0580444 3.86758 0.19696 2.25558C0.458954 0.604584 2.26395 -0.179413 4.40295 0.0345764C7.32996 0.328583 8.84494 1.97458 8.76495 4.79459C8.76495 4.79459 8.76498 4.79462 8.76498 4.79462Z" style="fill:#000000;mix-blend-mode:normal;" transform="translate(0 74.96)" />
      <path id="Фигура" d="M7.88073 4.20457C7.57271 1.83656 6.13473 0.710579 4.26372 0.856575C2.39171 1.00358 1.12572 2.34058 1.20171 4.72556C1.2777 7.11155 2.77672 8.39756 4.86071 8.23457C6.94372 8.07157 8.18871 6.57157 7.8807 4.20457C7.8807 4.20457 7.88073 4.20457 7.88073 4.20457ZM0.000692368 4.75056C-0.0402927 1.90455 1.74169 0.209572 4.1957 0.0175552C6.64971 -0.175438 8.64571 1.22657 9.06069 4.04255C9.4757 6.85856 7.72869 8.85456 4.92968 9.07456C2.13067 9.29356 0.0426846 7.59657 0.000692368 4.75056C0.000692368 4.75056 0.000692368 4.75056 0.000692368 4.75056Z" style="fill:#000000;mix-blend-mode:normal;" transform="translate(11.722 75.11)" />
      <path id="Фигура" d="M7.57694 3.67699C6.87393 1.39599 5.29294 0.523003 3.52094 0.978996C1.74994 1.43499 0.76993 2.96499 1.25592 5.303C1.73993 7.64101 3.39392 8.656 5.36792 8.14901C7.33991 7.64202 8.27991 5.958 7.57694 3.67699C7.57694 3.67699 7.57694 3.67699 7.57694 3.67699ZM0.111849 5.53008C-0.419157 2.73208 0.988863 0.760094 3.31085 0.162071C5.63385 -0.434914 7.80286 0.617058 8.68585 3.32308C9.57086 6.03008 8.22684 8.28307 5.57785 8.96508C2.92887 9.64709 0.642855 8.32607 0.111849 5.53008C0.111849 5.53008 0.111849 5.53008 0.111849 5.53008Z" style="fill:#000000;mix-blend-mode:normal;" transform="translate(23.482 73.154)" />
      <path id="Путь" d="M3.229 0C4.621 3.29199 5.31702 4.93799 6.70801 8.23001C6.267 8.418 6.04602 8.51001 5.60202 8.69C4.38602 5.67902 3.77902 4.173 2.56302 1.16101C1.65802 1.52902 1.20102 1.70502 0.278015 2.039C0.167023 1.73099 0.11203 1.577 0 1.271C1.30899 0.79599 1.95499 0.541992 3.229 0C3.229 0 3.229 0 3.229 0Z" style="fill:#000000;mix-blend-mode:normal;" transform="translate(32.625 70.323)" />
      <path id="Путь" d="M8.27301 0C9.108 3.91 9.41101 5.923 9.767 10.025C9.37299 10.3 9.17401 10.436 8.77499 10.703C5.09299 8.871 3.33301 7.854 0 5.64902C0.402008 5.41803 0.60199 5.30002 1 5.06201C3.922 6.92902 5.453 7.797 8.63199 9.38202C8.332 5.82901 8.08698 4.08102 7.42297 0.671021C7.76498 0.405029 7.93497 0.271027 8.27298 3.05176e-05C8.27298 3.05176e-05 8.27301 0 8.27301 0Z" style="fill:#000000;mix-blend-mode:normal;" transform="translate(42.756 61.239)" />
      <path id="Путь" d="M11.086 5.349C11.325 5.57098 11.445 5.681 11.686 5.90298C9.47699 8.28998 8.30499 9.42499 5.849 11.559C3.509 8.85898 2.33899 7.509 0 4.81C2.09299 2.99399 3.09201 2.02899 4.98099 0C5.21899 0.222992 5.33899 0.334015 5.57797 0.557007C3.95996 2.293 3.11197 3.12601 1.34598 4.711C2.19296 5.65799 2.61798 6.13101 3.46597 7.078C5.11697 5.595 5.91397 4.82101 7.44098 3.21201C7.67499 3.43301 7.79099 3.54401 8.02399 3.76501C6.47897 5.39301 5.67297 6.17603 4.00198 7.67603C4.88797 8.66302 5.32999 9.15802 6.215 10.146C8.25101 8.31903 9.228 7.35703 11.086 5.34903C11.086 5.34903 11.086 5.349 11.086 5.349Z" style="fill:#000000;mix-blend-mode:normal;" transform="translate(52.979 54.801)" />
      <path id="Фигура" d="M6.63998 1.40452C5.448 0.61552 4.18399 1.08351 2.96997 2.73451C2.32596 3.61152 1.99396 4.04451 1.31396 4.8925C2.71295 6.0095 3.41296 6.5695 4.81296 7.6865C5.53897 6.77949 5.89395 6.31849 6.58295 5.38151C7.87994 3.6165 7.81094 2.1775 6.63995 1.40452C6.63995 1.40452 6.63998 1.40452 6.63998 1.40452ZM11.572 4.58757C10.031 4.83357 9.26398 4.93357 7.73999 5.09056C7.59399 5.33757 7.43799 5.57457 7.25 5.83055C6.54599 6.78956 6.18399 7.26054 5.44101 8.18855C6.327 8.89555 6.76901 9.24955 7.655 9.95655C7.35001 10.3366 7.19699 10.5245 6.88599 10.8995C4.13199 8.62455 2.75497 7.48756 0 5.21254C0.966003 4.04753 1.43201 3.44954 2.328 2.22853C3.85199 0.154522 5.63901 -0.564472 7.25201 0.465527C8.436 1.21952 8.789 2.51353 8.21902 4.07652C9.84201 3.88353 10.66 3.76252 12.3 3.46751C12.013 3.9185 11.868 4.14152 11.572 4.58751C11.572 4.58751 11.572 4.58757 11.572 4.58757Z" style="fill:#000000;mix-blend-mode:normal;" transform="translate(60.471 46.729)" />
      <path id="Путь" d="M0 0.940002C0.210999 0.56601 0.315002 0.377991 0.520996 0C0.520996 0 8.38199 4.24301 8.38199 4.24301C8.14798 4.673 8.03 4.88702 7.789 5.31302C4.673 3.56403 3.11499 2.68903 0 0.940033C0 0.940033 0 0.940002 0 0.940002Z" style="fill:#000000;mix-blend-mode:normal;" transform="translate(67.011 41.504)" />
      <path id="Путь" d="M1.189 5.88098C2.47699 6.44098 3.121 6.71997 4.409 7.27899C5.31201 5.21201 5.72299 4.15601 6.457 2.00699C6.76599 2.112 6.92001 2.16498 7.23001 2.26999C6.48801 4.444 6.07202 5.51398 5.15802 7.60498C6.54803 8.20898 7.24503 8.51199 8.63501 9.11597C8.43802 9.56696 8.33701 9.79095 8.133 10.238C4.879 8.75998 3.25198 8.02097 0 6.54099C1.164 3.99399 1.67999 2.68298 2.565 0C2.87601 0.10199 3.03101 0.153015 3.341 0.255005C2.58301 2.55301 2.151 3.67999 1.189 5.88101C1.189 5.88101 1.189 5.88098 1.189 5.88098Z" style="fill:#000000;mix-blend-mode:normal;" transform="translate(69.5 31.019)" />
      <path id="Путь" d="M0 1.061C0.114014 0.638 0.17099 0.425995 0.278015 0C3.74301 0.880005 5.47601 1.32101 8.94 2.20099C8.81702 2.685 8.754 2.92599 8.62302 3.40799C5.17401 2.46899 3.44901 1.99899 3.05176e-05 1.061C3.05176e-05 1.061 0 1.061 0 1.061Z" style="fill:#000000;mix-blend-mode:normal;" transform="translate(73.035 26.739)" />
      <path id="Путь" d="M8.987 0.28299C9.31299 0.303986 9.47601 0.313995 9.802 0.334991C9.595 3.76801 9.38901 5.46201 8.79401 8.78101C5.276 8.14502 3.517 7.827 0 7.19101C0.507996 4.36301 0.684998 2.922 0.872009 0C1.198 0.0209961 1.36102 0.0320129 1.686 0.0539856C1.52701 2.556 1.38501 3.79398 0.993011 6.22897C2.24802 6.43396 2.875 6.53598 4.13101 6.74097C4.49802 4.46396 4.63501 3.30896 4.80902 0.975952C5.13004 1.00095 5.29001 1.01294 5.61102 1.03796C5.43503 3.39896 5.29703 4.56696 4.92401 6.87097C6.23401 7.08496 6.88901 7.19098 8.20001 7.40497C8.65302 4.59695 8.81302 3.17096 8.987 0.282959C8.987 0.282959 8.987 0.28299 8.987 0.28299Z" style="fill:#000000;mix-blend-mode:normal;" transform="translate(74.268 15.141)" />
      <path id="Фигура" d="M8.12901 6.20375C7.91002 2.92674 6.076 0.984757 3.95302 1.28175C1.83101 1.57875 0.650009 3.72176 0.846024 6.66975C0.933029 7.98177 0.960037 8.63677 0.98201 9.93575C3.90102 9.89574 5.36101 9.87575 8.28001 9.83574C8.25603 8.39073 8.22603 7.66374 8.12901 6.20375C8.12901 6.20375 8.12901 6.20375 8.12901 6.20375ZM0.174942 11.0937C0.175949 9.33174 0.147934 8.44475 0.0259552 6.65874C-0.210037 3.15074 1.17296 0.454728 3.76897 0.0447241C6.36397 -0.366287 8.66896 2.08772 8.93898 6.08074C9.07597 8.11275 9.10899 9.12373 9.10799 11.1287C5.53398 11.1147 3.748 11.1067 0.174973 11.0937C0.174973 11.0937 0.174942 11.0937 0.174942 11.0937Z" style="fill:#000000;mix-blend-mode:normal;" transform="translate(75.096 0)" />
    </g>
    <g id="Группа" transform="translate(78.022 76.877)">
      <path id="Фигура" d="M7.20895 2.95157C7.26096 1.97156 6.30194 1.00656 4.37494 0.813568C2.76794 0.654572 1.53894 1.23056 1.37393 2.40558C1.21094 3.56757 2.26395 4.49057 4.08295 4.67059C5.88794 4.8476 7.15094 4.0596 7.20895 2.9516C7.20895 2.9516 7.20895 2.95157 7.20895 2.95157ZM8.76498 4.79462C8.67999 7.83063 6.33698 9.38263 2.922 9.0126C1.79001 8.88962 0.73999 8.6066 0 8.14859C0.252014 7.8876 0.377014 7.75558 0.623993 7.49158C1.22198 7.88559 2.064 8.11057 2.98898 8.21158C5.67297 8.50256 7.43198 7.31958 7.54297 4.89758C7.55197 4.69458 7.54697 4.43857 7.52597 4.16959C6.90198 5.12259 5.47696 5.59259 3.82196 5.4256C1.45096 5.18561 -0.0580444 3.86758 0.19696 2.25558C0.458954 0.604584 2.26395 -0.179413 4.40295 0.0345764C7.32996 0.328583 8.84494 1.97458 8.76495 4.79459C8.76495 4.79459 8.76498 4.79462 8.76498 4.79462Z" style="fill:#6B9071;mix-blend-mode:normal;" transform="translate(0 74.96)" />
      <path id="Фигура" d="M7.88073 4.20457C7.57271 1.83656 6.13473 0.710579 4.26372 0.856575C2.39171 1.00358 1.12572 2.34058 1.20171 4.72556C1.2777 7.11155 2.77672 8.39756 4.86071 8.23457C6.94372 8.07157 8.18871 6.57157 7.8807 4.20457C7.8807 4.20457 7.88073 4.20457 7.88073 4.20457ZM0.000692368 4.75056C-0.0402927 1.90455 1.74169 0.209572 4.1957 0.0175552C6.64971 -0.175438 8.64571 1.22657 9.06069 4.04255C9.4757 6.85856 7.72869 8.85456 4.92968 9.07456C2.13067 9.29356 0.0426846 7.59657 0.000692368 4.75056C0.000692368 4.75056 0.000692368 4.75056 0.000692368 4.75056Z" style="fill:#6B9071;mix-blend-mode:normal;" transform="translate(11.722 75.11)" />
      <path id="Фигура" d="M7.57694 3.67699C6.87393 1.39599 5.29294 0.523003 3.52094 0.978996C1.74994 1.43499 0.76993 2.96499 1.25592 5.303C1.73993 7.64101 3.39392 8.656 5.36792 8.14901C7.33991 7.64202 8.27991 5.958 7.57694 3.67699C7.57694 3.67699 7.57694 3.67699 7.57694 3.67699ZM0.111849 5.53008C-0.419157 2.73208 0.988863 0.760094 3.31085 0.162071C5.63385 -0.434914 7.80286 0.617058 8.68585 3.32308C9.57086 6.03008 8.22684 8.28307 5.57785 8.96508C2.92887 9.64709 0.642855 8.32607 0.111849 5.53008C0.111849 5.53008 0.111849 5.53008 0.111849 5.53008Z" style="fill:#6B9071;mix-blend-mode:normal;" transform="translate(23.482 73.154)" />
      <path id="Путь" d="M3.229 0C4.621 3.29199 5.31702 4.93799 6.70801 8.23001C6.267 8.418 6.04602 8.51001 5.60202 8.69C4.38602 5.67902 3.77902 4.173 2.56302 1.16101C1.65802 1.52902 1.20102 1.70502 0.278015 2.039C0.167023 1.73099 0.11203 1.577 0 1.271C1.30899 0.79599 1.95499 0.541992 3.229 0C3.229 0 3.229 0 3.229 0Z" style="fill:#6B9071;mix-blend-mode:normal;" transform="translate(32.625 70.323)" />
      <path id="Путь" d="M8.27301 0C9.108 3.91 9.41101 5.923 9.767 10.025C9.37299 10.3 9.17401 10.436 8.77499 10.703C5.09299 8.871 3.33301 7.854 0 5.64902C0.402008 5.41803 0.60199 5.30002 1 5.06201C3.922 6.92902 5.453 7.797 8.63199 9.38202C8.332 5.82901 8.08698 4.08102 7.42297 0.671021C7.76498 0.405029 7.93497 0.271027 8.27298 3.05176e-05C8.27298 3.05176e-05 8.27301 0 8.27301 0Z" style="fill:#6B9071;mix-blend-mode:normal;" transform="translate(42.756 61.239)" />
      <path id="Путь" d="M11.086 5.349C11.325 5.57098 11.445 5.681 11.686 5.90298C9.47699 8.28998 8.30499 9.42499 5.849 11.559C3.509 8.85898 2.33899 7.509 0 4.81C2.09299 2.99399 3.09201 2.02899 4.98099 0C5.21899 0.222992 5.33899 0.334015 5.57797 0.557007C3.95996 2.293 3.11197 3.12601 1.34598 4.711C2.19296 5.65799 2.61798 6.13101 3.46597 7.078C5.11697 5.595 5.91397 4.82101 7.44098 3.21201C7.67499 3.43301 7.79099 3.54401 8.02399 3.76501C6.47897 5.39301 5.67297 6.17603 4.00198 7.67603C4.88797 8.66302 5.32999 9.15802 6.215 10.146C8.25101 8.31903 9.228 7.35703 11.086 5.34903C11.086 5.34903 11.086 5.349 11.086 5.349Z" style="fill:#6B9071;mix-blend-mode:normal;" transform="translate(52.979 54.801)" />
      <path id="Фигура" d="M6.63998 1.40452C5.448 0.61552 4.18399 1.08351 2.96997 2.73451C2.32596 3.61152 1.99396 4.04451 1.31396 4.8925C2.71295 6.0095 3.41296 6.5695 4.81296 7.6865C5.53897 6.77949 5.89395 6.31849 6.58295 5.38151C7.87994 3.6165 7.81094 2.1775 6.63995 1.40452C6.63995 1.40452 6.63998 1.40452 6.63998 1.40452ZM11.572 4.58757C10.031 4.83357 9.26398 4.93357 7.73999 5.09056C7.59399 5.33757 7.43799 5.57457 7.25 5.83055C6.54599 6.78956 6.18399 7.26054 5.44101 8.18855C6.327 8.89555 6.76901 9.24955 7.655 9.95655C7.35001 10.3366 7.19699 10.5245 6.88599 10.8995C4.13199 8.62455 2.75497 7.48756 0 5.21254C0.966003 4.04753 1.43201 3.44954 2.328 2.22853C3.85199 0.154522 5.63901 -0.564472 7.25201 0.465527C8.436 1.21952 8.789 2.51353 8.21902 4.07652C9.84201 3.88353 10.66 3.76252 12.3 3.46751C12.013 3.9185 11.868 4.14152 11.572 4.58751C11.572 4.58751 11.572 4.58757 11.572 4.58757Z" style="fill:#6B9071;mix-blend-mode:normal;" transform="translate(60.471 46.729)" />
      <path id="Путь" d="M0 0.940002C0.210999 0.56601 0.315002 0.377991 0.520996 0C0.520996 0 8.38199 4.24301 8.38199 4.24301C8.14798 4.673 8.03 4.88702 7.789 5.31302C4.673 3.56403 3.11499 2.68903 0 0.940033C0 0.940033 0 0.940002 0 0.940002Z" style="fill:#6B9071;mix-blend-mode:normal;" transform="translate(67.011 41.504)" />
      <path id="Путь" d="M1.189 5.88098C2.47699 6.44098 3.121 6.71997 4.409 7.27899C5.31201 5.21201 5.72299 4.15601 6.457 2.00699C6.76599 2.112 6.92001 2.16498 7.23001 2.26999C6.48801 4.444 6.07202 5.51398 5.15802 7.60498C6.54803 8.20898 7.24503 8.51199 8.63501 9.11597C8.43802 9.56696 8.33701 9.79095 8.133 10.238C4.879 8.75998 3.25198 8.02097 0 6.54099C1.164 3.99399 1.67999 2.68298 2.565 0C2.87601 0.10199 3.03101 0.153015 3.341 0.255005C2.58301 2.55301 2.151 3.67999 1.189 5.88101C1.189 5.88101 1.189 5.88098 1.189 5.88098Z" style="fill:#6B9071;mix-blend-mode:normal;" transform="translate(69.5 31.019)" />
      <path id="Путь" d="M0 1.061C0.114014 0.638 0.17099 0.425995 0.278015 0C3.74301 0.880005 5.47601 1.32101 8.94 2.20099C8.81702 2.685 8.754 2.92599 8.62302 3.40799C5.17401 2.46899 3.44901 1.99899 3.05176e-05 1.061C3.05176e-05 1.061 0 1.061 0 1.061Z" style="fill:#6B9071;mix-blend-mode:normal;" transform="translate(73.035 26.739)" />
      <path id="Путь" d="M8.987 0.28299C9.31299 0.303986 9.47601 0.313995 9.802 0.334991C9.595 3.76801 9.38901 5.46201 8.79401 8.78101C5.276 8.14502 3.517 7.827 0 7.19101C0.507996 4.36301 0.684998 2.922 0.872009 0C1.198 0.0209961 1.36102 0.0320129 1.686 0.0539856C1.52701 2.556 1.38501 3.79398 0.993011 6.22897C2.24802 6.43396 2.875 6.53598 4.13101 6.74097C4.49802 4.46396 4.63501 3.30896 4.80902 0.975952C5.13004 1.00095 5.29001 1.01294 5.61102 1.03796C5.43503 3.39896 5.29703 4.56696 4.92401 6.87097C6.23401 7.08496 6.88901 7.19098 8.20001 7.40497C8.65302 4.59695 8.81302 3.17096 8.987 0.282959C8.987 0.282959 8.987 0.28299 8.987 0.28299Z" style="fill:#6B9071;mix-blend-mode:normal;" transform="translate(74.268 15.141)" />
      <path id="Фигура" d="M8.12901 6.20375C7.91002 2.92674 6.076 0.984757 3.95302 1.28175C1.83101 1.57875 0.650009 3.72176 0.846024 6.66975C0.933029 7.98177 0.960037 8.63677 0.98201 9.93575C3.90102 9.89574 5.36101 9.87575 8.28001 9.83574C8.25603 8.39073 8.22603 7.66374 8.12901 6.20375C8.12901 6.20375 8.12901 6.20375 8.12901 6.20375ZM0.174942 11.0937C0.175949 9.33174 0.147934 8.44475 0.0259552 6.65874C-0.210037 3.15074 1.17296 0.454728 3.76897 0.0447241C6.36397 -0.366287 8.66896 2.08772 8.93898 6.08074C9.07597 8.11275 9.10899 9.12373 9.10799 11.1287C5.53398 11.1147 3.748 11.1067 0.174973 11.0937C0.174973 11.0937 0.174942 11.0937 0.174942 11.0937Z" style="fill:#6B9071;mix-blend-mode:normal;" transform="translate(75.096 0)" />
    </g>
    <g id="Группа" transform="translate(15.523 13.339)">
      <path id="Путь" d="M4.28283 12.287C1.44081 12.163 -0.491162 8.82199 0.109821 4.66599C0.400806 2.65698 1.19384 0.964996 2.33882 0C2.51284 0.404999 2.60283 0.605988 2.78484 1.008C1.80284 1.91199 1.22683 3.19901 1.00283 4.75598C0.52782 8.04398 2.06682 10.737 4.36184 10.885C6.65685 11.031 8.50682 8.84097 8.90184 5.90799C9.08886 4.51898 8.94686 3.27298 8.33385 2.13199C8.64986 1.85999 8.80886 1.72598 9.12786 1.46399C9.83687 2.71198 10.0409 4.32898 9.80587 6.09299C9.32888 9.68698 7.12688 12.411 4.28286 12.287C4.28286 12.287 4.28283 12.287 4.28283 12.287Z" style="fill:#000000;mix-blend-mode:normal;" transform="translate(0 57.944)" />
      <path id="Путь" d="M10.933 3.08301C11.257 3.22 11.419 3.28799 11.745 3.42599C10.552 6.37698 10.037 7.91 9.202 11.087C5.46399 10.039 3.625 9.52402 0 8.51199C0.964996 4.983 1.548 3.28 2.888 0C3.20401 0.131012 3.362 0.196991 3.67801 0.328003C2.56 3.07101 2.06302 4.487 1.20801 7.405C2.49301 7.79099 3.138 7.98499 4.436 8.375C5.155 5.89001 5.56799 4.681 6.48999 2.327C6.806 2.45499 6.96399 2.51999 7.28198 2.647C6.37299 4.97202 5.96597 6.16699 5.25897 8.62201C6.61896 9.03101 7.30197 9.23602 8.67697 9.65002C9.44797 6.94003 9.90298 5.62701 10.933 3.08304C10.933 3.08304 10.933 3.08301 10.933 3.08301Z" style="fill:#000000;mix-blend-mode:normal;" transform="translate(2.121 44.804)" />
      <path id="Фигура" d="M6.86496 1.52882C5.60495 0.711838 4.16495 1.33382 2.93195 3.50282C2.27795 4.65382 1.96194 5.23882 1.35596 6.42781C3.01697 7.2888 3.85495 7.72282 5.54697 8.5988C6.10995 7.48479 6.40295 6.93581 7.01297 5.8568C8.16098 3.82478 8.10098 2.3308 6.86496 1.52879C6.86496 1.52879 6.86496 1.52882 6.86496 1.52882ZM12.135 4.87181C10.562 5.04182 9.77298 5.15382 8.19299 5.43581C8.06699 5.7058 7.931 5.96782 7.76898 6.25481C7.16098 7.33281 6.86798 7.87981 6.30499 8.99281C7.379 9.54881 7.918 9.8278 9.00299 10.3898C8.793 10.8088 8.689 11.0188 8.48599 11.4428C5.03198 9.73082 3.336 8.89082 0 7.23982C0.835999 5.52483 1.28 4.68584 2.215 3.04582C3.802 0.258835 5.88901 -0.655167 7.55499 0.467819C8.77698 1.29283 9.09698 2.67281 8.60699 4.34181C10.299 4.06581 11.142 3.9608 12.823 3.81282C12.544 4.23283 12.406 4.44481 12.135 4.87181C12.135 4.87181 12.135 4.87181 12.135 4.87181Z" style="fill:#000000;mix-blend-mode:normal;" transform="translate(6.987 33.146)" />
      <path id="Путь" d="M3.29898 4.793C2.21497 6.134 1.69299 6.82101 0.687988 8.23099C0.411987 8.03299 0.274994 7.93399 0 7.73499C2.34 4.45398 3.61801 2.90298 6.371 0C6.616 0.233002 6.73801 0.350006 6.98502 0.584015C5.802 1.83102 5.23001 2.47302 4.12302 3.79202C6.70001 5.96902 8.01001 7.07404 10.674 9.32202C10.38 9.67401 10.236 9.85101 9.94702 10.207C7.24402 8.00604 5.91501 6.92404 3.29901 4.79303C3.29901 4.79303 3.29898 4.793 3.29898 4.793Z" style="fill:#000000;mix-blend-mode:normal;" transform="translate(13.209 22.182)" />
      <path id="Путь" d="M0 0.895996C0.377991 0.533997 0.567993 0.355011 0.951996 0C3.46799 2.71301 4.74701 4.09399 7.354 6.90799C7.01901 7.21698 6.853 7.37399 6.522 7.689C3.866 4.922 2.56299 3.565 0 0.895996C0 0.895996 0 0.895996 0 0.895996Z" style="fill:#000000;mix-blend-mode:normal;" transform="translate(21.986 18.867)" />
      <path id="Путь" d="M1.55402 4.77597C2.44601 5.93097 2.89502 6.51196 3.79901 7.68396C5.71802 6.21896 6.71402 5.52695 8.77301 4.22897C8.95901 4.51898 9.052 4.66498 9.23901 4.95697C7.20502 6.23798 6.22202 6.92096 4.32602 8.36697C5.30603 9.63599 5.80002 10.276 6.79501 11.566C6.43002 11.843 6.24802 11.984 5.88901 12.268C3.491 9.27197 2.314 7.80197 0 4.91199C2.66599 2.79498 4.06799 1.81 6.995 0C7.17499 0.287994 7.26599 0.431 7.44699 0.718994C4.99799 2.23199 3.81799 3.04498 1.55399 4.776C1.55399 4.776 1.55402 4.77597 1.55402 4.77597Z" style="fill:#000000;mix-blend-mode:normal;" transform="translate(27.009 10.466)" />
      <path id="Путь" d="M0 0.630005C0.471008 0.373993 0.707001 0.248016 1.18301 0C2.92001 3.28799 3.80301 4.95999 5.604 8.36499C5.18701 8.57898 4.979 8.68799 4.56799 8.909C2.70801 5.53699 1.79498 3.883 0 0.630005C0 0.630005 0 0.630005 0 0.630005Z" style="fill:#000000;mix-blend-mode:normal;" transform="translate(37.553 7.776)" />
      <path id="Путь" d="M11.144 8.229C11.244 8.569 11.294 8.73901 11.395 9.07901C8.242 9.95502 6.72101 10.488 3.79401 11.716C2.25 8.17902 1.492 6.44101 0 3.01999C3.246 1.629 4.92999 1.01999 8.423 0C8.522 0.329987 8.57101 0.493988 8.66901 0.825012C5.74802 1.67401 4.332 2.17001 1.58499 3.285C2.095 4.51599 2.35199 5.13501 2.86798 6.38101C5.20697 5.43903 6.40997 5.01602 8.87997 4.276C8.98196 4.603 9.03299 4.767 9.13498 5.095C6.69397 5.82501 5.50598 6.242 3.19598 7.17001C3.73697 8.47501 4.008 9.13101 4.55597 10.453C7.10797 9.435 8.42596 8.987 11.144 8.229C11.144 8.229 11.144 8.229 11.144 8.229Z" style="fill:#000000;mix-blend-mode:normal;" transform="translate(43.733 2.389)" />
      <path id="Фигура" d="M6.70102 8.78556C9.92801 8.34156 12.008 6.59855 11.858 4.27656C11.71 1.95356 9.15503 0.469551 5.54504 0.999549C3.93604 1.23554 3.14304 1.37354 1.58105 1.68555C2.20306 4.72254 2.51807 6.25754 3.15805 9.36655C4.55505 9.09855 5.26404 8.98255 6.70105 8.78556C6.70105 8.78556 6.70102 8.78556 6.70102 8.78556ZM0 1.13563C2.155 0.659614 3.255 0.456642 5.495 0.128639C9.89798 -0.518364 13.138 1.34263 13.263 4.19764C13.388 7.05564 10.736 9.13962 6.901 9.65864C4.94901 9.92264 3.98999 10.0886 2.11002 10.4836C1.25302 6.68766 0.831024 4.81965 3.05176e-05 1.13566C3.05176e-05 1.13566 0 1.13563 0 1.13563Z" style="fill:#000000;mix-blend-mode:normal;" transform="translate(57.053 0)" />
    </g>
    <g id="Группа" transform="translate(6.175 6.175)">
      <path id="Путь" d="M4.28283 12.287C1.44081 12.163 -0.491161 8.82199 0.109821 4.66599C0.400806 2.65698 1.19384 0.964996 2.33883 0C2.51284 0.404999 2.60283 0.605988 2.78484 1.008C1.80285 1.91199 1.22683 3.19901 1.00283 4.75598C0.527821 8.04398 2.06682 10.737 4.36184 10.885C6.65685 11.031 8.50682 8.84097 8.90184 5.90799C9.08886 4.51898 8.94686 3.27298 8.33385 2.13199C8.64986 1.85999 8.80886 1.72598 9.12786 1.46399C9.83687 2.71198 10.0409 4.32898 9.80587 6.09299C9.32888 9.68698 7.12688 12.411 4.28286 12.287C4.28286 12.287 4.28283 12.287 4.28283 12.287Z" style="fill:#6B9071;mix-blend-mode:normal;" transform="translate(9.348 65.107)" />
      <path id="Путь" d="M10.933 3.08301C11.257 3.22 11.419 3.28799 11.745 3.42599C10.552 6.37698 10.037 7.91 9.202 11.087C5.46399 10.039 3.625 9.52402 0 8.51199C0.964996 4.983 1.548 3.28 2.888 0C3.20401 0.131012 3.362 0.196991 3.67801 0.328003C2.56 3.07101 2.06302 4.487 1.20801 7.405C2.49301 7.79099 3.138 7.98499 4.436 8.375C5.155 5.89001 5.56799 4.681 6.48999 2.327C6.806 2.45499 6.96399 2.51999 7.28198 2.647C6.37299 4.97202 5.96597 6.16699 5.25897 8.62201C6.61896 9.03101 7.30197 9.23602 8.67697 9.65002C9.44797 6.94003 9.90298 5.62701 10.933 3.08304C10.933 3.08304 10.933 3.08301 10.933 3.08301Z" style="fill:#6B9071;mix-blend-mode:normal;" transform="translate(11.469 51.968)" />
      <path id="Фигура" d="M6.86496 1.52882C5.60495 0.711838 4.16495 1.33382 2.93195 3.50282C2.27795 4.65382 1.96194 5.23882 1.35596 6.42781C3.01697 7.2888 3.85495 7.72282 5.54697 8.5988C6.10995 7.48479 6.40295 6.93581 7.01297 5.8568C8.16098 3.82478 8.10098 2.3308 6.86496 1.52879C6.86496 1.52879 6.86496 1.52882 6.86496 1.52882ZM12.135 4.87181C10.562 5.04182 9.77298 5.15382 8.19299 5.43581C8.06699 5.7058 7.931 5.96782 7.76898 6.25481C7.16098 7.33281 6.86798 7.87981 6.30499 8.99281C7.379 9.54881 7.918 9.8278 9.00299 10.3898C8.793 10.8088 8.689 11.0188 8.48599 11.4428C5.03198 9.73082 3.336 8.89082 0 7.23982C0.835999 5.52483 1.28 4.68584 2.215 3.04582C3.802 0.258835 5.88901 -0.655167 7.55499 0.467819C8.77698 1.29283 9.09698 2.67281 8.60699 4.34181C10.299 4.06581 11.142 3.9608 12.823 3.81282C12.544 4.23283 12.406 4.44481 12.135 4.87181C12.135 4.87181 12.135 4.87181 12.135 4.87181Z" style="fill:#6B9071;mix-blend-mode:normal;" transform="translate(16.335 40.31)" />
      <path id="Путь" d="M3.29898 4.793C2.21497 6.134 1.69299 6.82101 0.687988 8.23099C0.411987 8.03299 0.274994 7.93399 0 7.73499C2.34 4.45398 3.61801 2.90298 6.371 0C6.616 0.233002 6.73801 0.350006 6.98502 0.584015C5.802 1.83102 5.23001 2.47302 4.12302 3.79202C6.70001 5.96902 8.01001 7.07404 10.674 9.32202C10.38 9.67401 10.236 9.85101 9.94702 10.207C7.24402 8.00604 5.91501 6.92404 3.29901 4.79303C3.29901 4.79303 3.29898 4.793 3.29898 4.793Z" style="fill:#6B9071;mix-blend-mode:normal;" transform="translate(22.558 29.345)" />
      <path id="Путь" d="M0 0.895996C0.377991 0.533997 0.567993 0.355011 0.951996 0C3.46799 2.71301 4.74701 4.09399 7.354 6.90799C7.01901 7.21698 6.853 7.37399 6.522 7.689C3.866 4.922 2.56299 3.565 0 0.895996C0 0.895996 0 0.895996 0 0.895996Z" style="fill:#6B9071;mix-blend-mode:normal;" transform="translate(31.334 26.031)" />
      <path id="Путь" d="M1.55402 4.77597C2.44601 5.93097 2.89502 6.51196 3.79901 7.68396C5.71802 6.21896 6.71402 5.52695 8.77301 4.22897C8.95901 4.51898 9.052 4.66498 9.23901 4.95697C7.20502 6.23798 6.22202 6.92096 4.32602 8.36697C5.30603 9.63599 5.80002 10.276 6.79501 11.566C6.43002 11.843 6.24802 11.984 5.88901 12.268C3.491 9.27197 2.314 7.80197 0 4.91199C2.66599 2.79498 4.06799 1.81 6.995 0C7.17499 0.287994 7.26599 0.431 7.44699 0.718994C4.99799 2.23199 3.81799 3.04498 1.55399 4.776C1.55399 4.776 1.55402 4.77597 1.55402 4.77597Z" style="fill:#6B9071;mix-blend-mode:normal;" transform="translate(36.357 17.629)" />
      <path id="Путь" d="M0 0.630005C0.471008 0.373993 0.707001 0.248016 1.18301 0C2.92001 3.28799 3.80301 4.95999 5.604 8.36499C5.18701 8.57898 4.979 8.68799 4.56799 8.909C2.70801 5.53699 1.79498 3.883 0 0.630005C0 0.630005 0 0.630005 0 0.630005Z" style="fill:#6B9071;mix-blend-mode:normal;" transform="translate(46.901 14.939)" />
      <path id="Путь" d="M11.144 8.229C11.244 8.569 11.294 8.73901 11.395 9.07901C8.242 9.95502 6.72101 10.488 3.79401 11.716C2.25 8.17902 1.492 6.44101 0 3.01999C3.246 1.629 4.92999 1.01999 8.423 0C8.522 0.329987 8.57101 0.493988 8.66901 0.825012C5.74802 1.67401 4.332 2.17001 1.58499 3.285C2.095 4.51599 2.35199 5.13501 2.86798 6.38101C5.20697 5.43903 6.40997 5.01602 8.87997 4.276C8.98196 4.603 9.03299 4.767 9.13498 5.095C6.69397 5.82501 5.50598 6.242 3.19598 7.17001C3.73697 8.47501 4.008 9.13101 4.55597 10.453C7.10797 9.435 8.42596 8.987 11.144 8.229C11.144 8.229 11.144 8.229 11.144 8.229Z" style="fill:#6B9071;mix-blend-mode:normal;" transform="translate(53.082 9.552)" />
      <path id="Фигура" d="M6.70102 8.78556C9.92801 8.34156 12.008 6.59855 11.858 4.27656C11.71 1.95356 9.15503 0.469551 5.54504 0.999549C3.93604 1.23554 3.14304 1.37354 1.58105 1.68555C2.20306 4.72254 2.51807 6.25754 3.15805 9.36655C4.55505 9.09855 5.26404 8.98255 6.70105 8.78556C6.70105 8.78556 6.70102 8.78556 6.70102 8.78556ZM0 1.13563C2.155 0.659614 3.255 0.456642 5.495 0.128639C9.89798 -0.518364 13.138 1.34263 13.263 4.19764C13.388 7.05564 10.736 9.13963 6.901 9.65864C4.94901 9.92265 3.98999 10.0886 2.11002 10.4837C1.25302 6.68766 0.831024 4.81965 3.05176e-05 1.13566C3.05176e-05 1.13566 0 1.13563 0 1.13563Z" style="fill:#6B9071;mix-blend-mode:normal;" transform="translate(66.402 7.163)" />
      <path id="Путь" d="M1.40921 117.744C-0.0607892 119.213 -0.423796 121.466 0.524202 123.313C4.7482 131.54 10.3042 139.259 17.1942 146.148C24.0842 153.039 31.8032 158.595 40.0292 162.818C41.8772 163.766 44.1302 163.403 45.5982 161.933C45.5982 161.933 161.933 45.5979 161.933 45.5979C163.402 44.13 163.766 41.8769 162.818 40.029C158.595 31.8029 153.039 24.0839 146.148 17.194C139.259 10.305 131.54 4.74795 123.313 0.523947C121.466 -0.424051 119.213 -0.0600675 117.744 1.40896C117.744 1.40896 1.40921 117.744 1.40921 117.744Z" style="fill:#6B9071;mix-blend-mode:normal;" />
    </g>
    <path id="Путь" d="M1.41016 111.865C-0.112852 113.388 -0.445829 115.748 0.625154 117.616C4.31217 124.045 8.89514 130.099 14.3882 135.592C19.8792 141.083 25.9332 145.666 32.3622 149.353C34.2302 150.425 36.5901 150.092 38.1132 148.568C38.1132 148.568 148.567 38.1136 148.567 38.1136C150.09 36.5916 150.424 34.2306 149.352 32.3626C145.665 25.9336 141.082 19.8796 135.59 14.3876C130.098 8.89558 124.044 4.31257 117.615 0.625591C115.747 -0.4464 113.387 -0.112415 111.864 1.41059C111.864 1.41059 1.41016 111.865 1.41016 111.865Z" style="fill:#FFFFFF;mix-blend-mode:normal;" transform="translate(12.857 12.857)" />
    <g style="fill:#6B9071;mix-blend-mode:normal;" transform="matrix(0.707 -0.707 0.707 0.707 11 125)">
      <path d="M5.82599 5.97372Q5.77983 5.46591 5.41744 5.18199Q5.05504 4.89808 4.38565 4.89808Q3.72088 4.89808 3.38849 5.14968Q3.05611 5.40128 3.05149 5.78906Q3.03764 6.20916 3.41619 6.44691Q3.79474 6.68466 4.43643 6.82315L5.24893 7.00781Q6.64773 7.31712 7.39329 8.01882Q8.13885 8.72052 8.14347 9.85156Q8.13885 11.1996 7.14631 11.9567Q6.15376 12.7138 4.38565 12.7138Q2.60369 12.7138 1.53498 11.9082Q0.466264 11.1026 0.443182 9.44531L2.63139 9.44531Q2.66832 10.1285 3.13459 10.4771Q3.60085 10.8256 4.35795 10.8256Q5.04581 10.8256 5.43359 10.5533Q5.82138 10.2809 5.82599 9.84694Q5.82138 9.44993 5.45668 9.21218Q5.09197 8.97443 4.31179 8.79439L3.32386 8.56356Q2.1005 8.28196 1.39187 7.65181Q0.683239 7.02166 0.687855 5.94602Q0.683239 5.06427 1.15874 4.40412Q1.63423 3.74396 2.47212 3.37695Q3.31001 3.00994 4.39027 3.00994Q5.48899 3.00994 6.29918 3.38157Q7.10938 3.75319 7.55717 4.42028Q8.00497 5.08736 8.0142 5.97372L5.82599 5.97372ZM17.8842 6.56463L15.576 6.56463Q15.4883 5.85369 15.0059 5.43359Q14.5234 5.01349 13.7433 5.01349Q12.7092 5.01349 12.1206 5.76367Q11.532 6.51385 11.532 7.86648Q11.532 9.2745 12.1252 9.99698Q12.7184 10.7195 13.7294 10.7195Q14.4819 10.7195 14.9689 10.3363Q15.456 9.95312 15.576 9.26989L17.8842 9.28373Q17.8196 9.91158 17.5195 10.5233Q17.2195 11.1349 16.6909 11.6312Q16.1623 12.1275 15.4098 12.4252Q14.6573 12.723 13.6832 12.723Q12.3999 12.723 11.3865 12.1575Q10.3732 11.592 9.78693 10.5071Q9.20064 9.42223 9.20064 7.86648Q9.20064 6.30149 9.79616 5.21893Q10.3917 4.13636 11.4073 3.57315Q12.4229 3.00994 13.6832 3.00994Q14.8281 3.00994 15.733 3.42773Q16.6378 3.84552 17.2033 4.63956Q17.7688 5.43359 17.8842 6.56463ZM19.1861 12.5937L19.1861 3.1392L21.4712 3.1392L21.4712 7.13707L21.5959 7.13707L24.7212 3.1392L27.4126 3.1392L24.0611 7.35866L27.4727 12.5937L24.7397 12.5937L22.3853 8.87748L21.4712 10.0316L21.4712 12.5937L19.1861 12.5937ZM32.6893 2.69602L29.6424 14.0156L27.7173 14.0156L30.7642 2.69602L32.6893 2.69602ZM37.4165 12.8246Q36.1793 12.8246 35.2814 12.236Q34.3835 11.6474 33.9011 10.5417Q33.4187 9.43608 33.4233 7.88033Q33.4279 5.54901 34.4943 4.27947Q35.5607 3.00994 37.4165 3.00994Q38.6538 3.00994 39.5517 3.58008Q40.4496 4.15021 40.9343 5.2397Q41.419 6.32919 41.4144 7.88033Q41.4144 9.44069 40.9297 10.5486Q40.445 11.6566 39.5494 12.2406Q38.6538 12.8246 37.4165 12.8246ZM37.4165 10.9549Q38.1598 10.9549 38.6145 10.2001Q39.0692 9.44531 39.0646 7.88033Q39.06 6.34766 38.6076 5.60671Q38.1552 4.86577 37.4165 4.86577Q36.6825 4.86577 36.2301 5.60671Q35.7777 6.34766 35.7731 7.88033Q35.7685 9.44531 36.2232 10.2001Q36.6779 10.9549 37.4165 10.9549ZM46.3448 12.723Q45.3107 12.723 44.5051 12.3491Q43.6996 11.9751 43.2356 11.3196Q42.7717 10.6641 42.7578 9.81463L44.9737 9.81463Q44.9968 10.3363 45.3961 10.6525Q45.7954 10.9687 46.3448 10.9687Q46.9911 10.9687 47.4043 10.551Q47.8175 10.1332 47.8129 9.45454Q47.8175 8.77131 47.3997 8.35121Q46.9819 7.93111 46.331 7.93111Q45.9155 7.92649 45.5508 8.11115Q45.1861 8.29581 44.9968 8.61435L42.9794 8.23579L43.3903 3.1392L49.4563 3.1392L49.4563 4.98118L45.2692 4.98118L45.0522 7.21094L45.1076 7.21094Q45.343 6.81854 45.867 6.56232Q46.391 6.30611 47.0604 6.30611Q47.9098 6.30611 48.5769 6.70082Q49.244 7.09552 49.6294 7.79261Q50.0149 8.4897 50.0149 9.38991Q50.0149 10.364 49.5556 11.1165Q49.0962 11.869 48.2722 12.296Q47.4482 12.723 46.3448 12.723ZM55.6609 2.69602L52.614 14.0156L50.6889 14.0156L53.7358 2.69602L55.6609 2.69602ZM65.0785 6.56463L62.7702 6.56463Q62.6825 5.85369 62.2001 5.43359Q61.7177 5.01349 60.9375 5.01349Q59.9034 5.01349 59.3148 5.76367Q58.7262 6.51385 58.7262 7.86648Q58.7262 9.2745 59.3194 9.99698Q59.9126 10.7195 60.9236 10.7195Q61.6761 10.7195 62.1632 10.3363Q62.6502 9.95312 62.7702 9.26989L65.0785 9.28373Q65.0138 9.91158 64.7138 10.5233Q64.4137 11.1349 63.8851 11.6312Q63.3565 12.1275 62.604 12.4252Q61.8516 12.723 60.8775 12.723Q59.5941 12.723 58.5808 12.1575Q57.5675 11.592 56.9812 10.5071Q56.3949 9.42223 56.3949 7.86648Q56.3949 6.30149 56.9904 5.21893Q57.5859 4.13636 58.6016 3.57315Q59.6172 3.00994 60.8775 3.00994Q62.0224 3.00994 62.9272 3.42773Q63.832 3.84552 64.3975 4.63956Q64.9631 5.43359 65.0785 6.56463ZM75.304 7.86648Q75.304 9.42685 74.7038 10.5117Q74.1037 11.5966 73.0811 12.1598Q72.0586 12.723 70.7891 12.723Q69.5149 12.723 68.4924 12.1575Q67.4698 11.592 66.8743 10.5071Q66.2788 9.42223 66.2788 7.86648Q66.2788 6.30149 66.8743 5.21893Q67.4698 4.13636 68.4924 3.57315Q69.5149 3.00994 70.7891 3.00994Q72.0586 3.00994 73.0811 3.57315Q74.1037 4.13636 74.7038 5.21893Q75.304 6.30149 75.304 7.86648ZM72.968 7.86648Q72.968 6.47692 72.391 5.7452Q71.8139 5.01349 70.7891 5.01349Q69.7688 5.01349 69.1894 5.7452Q68.6101 6.47692 68.6101 7.86648Q68.6101 9.25604 69.1894 9.98775Q69.7688 10.7195 70.7891 10.7195Q71.8139 10.7195 72.391 9.98775Q72.968 9.25604 72.968 7.86648ZM82.3533 3.1392L84.6339 3.1392L84.6339 9.23757Q84.6339 10.2947 84.1307 11.0749Q83.6275 11.8551 82.7296 12.2844Q81.8317 12.7138 80.636 12.7138Q79.4357 12.7138 78.5332 12.2844Q77.6307 11.8551 77.1321 11.0749Q76.6335 10.2947 76.6335 9.23757L76.6335 3.1392L78.9187 3.1392L78.9187 9.03906Q78.9187 9.7777 79.3942 10.2532Q79.8697 10.7287 80.636 10.7287Q81.4023 10.7287 81.8778 10.2532Q82.3533 9.7777 82.3533 9.03906L82.3533 3.1392ZM89.7028 2.69602L86.6559 14.0156L84.7308 14.0156L87.7777 2.69602L89.7028 2.69602ZM90.5199 12.5937L90.5199 10.9503L93.9684 7.93111Q94.5501 7.40945 94.8686 6.99396Q95.1871 6.57848 95.1871 6.04758Q95.1871 5.46129 94.8109 5.1266Q94.4347 4.7919 93.8576 4.7919Q93.2713 4.7919 92.9089 5.14506Q92.5465 5.49822 92.5465 6.13991L90.3814 6.13991Q90.3814 5.17507 90.8153 4.47337Q91.2493 3.77166 92.0364 3.3908Q92.8235 3.00994 93.8668 3.00994Q94.9425 3.00994 95.7365 3.37003Q96.5305 3.73011 96.9668 4.3718Q97.403 5.01349 97.403 5.86754Q97.403 6.40767 97.1838 6.93626Q96.9645 7.46484 96.4036 8.10884Q95.8427 8.75284 94.8178 9.64844L93.6868 10.6918L93.6868 10.7518L97.5185 10.7518L97.5185 12.5937L90.5199 12.5937ZM102.435 12.723Q101.401 12.723 100.595 12.3491Q99.7898 11.9751 99.3258 11.3196Q98.8619 10.6641 98.848 9.81463L101.064 9.81463Q101.087 10.3363 101.486 10.6525Q101.886 10.9687 102.435 10.9687Q103.081 10.9687 103.494 10.551Q103.908 10.1332 103.903 9.45454Q103.908 8.77131 103.49 8.35121Q103.072 7.93111 102.421 7.93111Q102.006 7.92649 101.641 8.11115Q101.276 8.29581 101.087 8.61435L99.0696 8.23579L99.4805 3.1392L105.547 3.1392L105.547 4.98118L101.359 4.98118L101.142 7.21094L101.198 7.21094Q101.433 6.81854 101.957 6.56232Q102.481 6.30611 103.151 6.30611Q104 6.30611 104.667 6.70082Q105.334 7.09552 105.72 7.79261Q106.105 8.4897 106.105 9.38991Q106.105 10.364 105.646 11.1165Q105.186 11.869 104.362 12.296Q103.538 12.723 102.435 12.723ZM111.751 2.69602L108.704 14.0156L106.779 14.0156L109.826 2.69602L111.751 2.69602ZM112.453 11.0241L112.453 9.24219L116.326 3.1392L119.202 3.1392L119.202 9.22372L120.333 9.22372L120.333 11.0241L119.202 11.0241L119.202 12.5937L117.018 12.5937L117.018 11.0241L112.453 11.0241ZM117.065 9.22372L117.065 5.55824L116.991 5.55824L114.724 9.14986L114.724 9.22372L117.065 9.22372ZM121.418 11.0241L121.418 9.24219L125.291 3.1392L128.167 3.1392L128.167 9.22372L129.298 9.22372L129.298 11.0241L128.167 11.0241L128.167 12.5937L125.984 12.5937L125.984 11.0241L121.418 11.0241ZM126.03 9.22372L126.03 5.55824L125.956 5.55824L123.689 9.14986L123.689 9.22372L126.03 9.22372ZM134.893 2.69602L131.847 14.0156L129.922 14.0156L132.968 2.69602L134.893 2.69602ZM135.711 12.5937L135.711 10.9503L139.159 7.93111Q139.741 7.40945 140.059 6.99396Q140.378 6.57848 140.378 6.04758Q140.378 5.46129 140.002 5.1266Q139.625 4.7919 139.048 4.7919Q138.462 4.7919 138.1 5.14506Q137.737 5.49822 137.737 6.13991L135.572 6.13991Q135.572 5.17507 136.006 4.47337Q136.44 3.77166 137.227 3.3908Q138.014 3.00994 139.058 3.00994Q140.133 3.00994 140.927 3.37003Q141.721 3.73011 142.157 4.3718Q142.594 5.01349 142.594 5.86754Q142.594 6.40767 142.374 6.93626Q142.155 7.46484 141.594 8.10884Q141.033 8.75284 140.009 9.64844L138.877 10.6918L138.877 10.7518L142.709 10.7518L142.709 12.5937L135.711 12.5937ZM148.378 3.1392L148.378 12.5937L146.098 12.5937L146.098 5.27202L146.042 5.27202L143.928 6.56463L143.928 4.58878L146.259 3.1392L148.378 3.1392ZM154.846 3.1392L154.846 12.5937L152.565 12.5937L152.565 5.27202L152.51 5.27202L150.396 6.56463L150.396 4.58878L152.727 3.1392L154.846 3.1392ZM161.314 3.1392L161.314 12.5937L159.033 12.5937L159.033 5.27202L158.978 5.27202L156.863 6.56463L156.863 4.58878L159.195 3.1392L161.314 3.1392Z" transform="translate(0 21.935)" />
    </g>
  </g>
</svg>