<?xml version="1.0" encoding="utf-8"?>
<svg width="18" height="16" viewBox="0 0 18 16" fill="none" stroke="none" version="1.1" xmlns:xlink="http://www.w3.org/1999/xlink" xmlns="http://www.w3.org/2000/svg">
  <path id="Фигура" d="M2 2.5C2 2.22386 2.22386 2 2.5 2C2.5 2 13 2 13 2C13.5523 2 14 1.55228 14 1C14 0.447715 13.5523 0 13 0C13 0 2.5 0 2.5 0C1.11929 0 0 1.11929 0 2.5C0 2.5 0 14 0 14C0 15.1046 0.895431 16 2 16C2 16 16 16 16 16C17.1046 16 18 15.1046 18 14C18 14 18 5 18 5C18 3.89543 17.1046 3 16 3C16 3 2.5 3 2.5 3C2.22386 3 2 2.77614 2 2.5C2 2.5 2 2.5 2 2.5ZM12.5 11C13.3284 11 14 10.3284 14 9.5C14 8.67157 13.3284 8 12.5 8C11.6716 8 11 8.67157 11 9.5C11 10.3284 11.6716 11 12.5 11C12.5 11 12.5 11 12.5 11Z" style="fill:#6b9071;fill-rule:evenodd;mix-blend-mode:normal;" />
</svg>