<?xml version="1.0" encoding="utf-8"?>
<svg width="19.207" height="17" viewBox="0 0 19.207 17" fill="none" stroke="none" version="1.1" xmlns:xlink="http://www.w3.org/1999/xlink" xmlns="http://www.w3.org/2000/svg">
  <path id="Фигура" d="M1.5 0C2.27263 3.05176e-05 2.91882 0.586945 2.993 1.35599C2.993 1.35599 3 1.5 3 1.5L3 14C3 14 17.5 14 17.5 14C18.3001 14.0004 18.9591 14.6287 18.9975 15.4279C19.036 16.2271 18.4404 16.9158 17.644 16.993C17.644 16.993 17.5 17 17.5 17C17.5 17 1.5 17 1.5 17C0.727371 17 0.0811768 16.4131 0.00700378 15.644C0.00700378 15.644 0 15.5 0 15.5C0 15.5 0 1.5 0 1.5C0 0.67157 0.67157 0 1.5 0C1.5 0 1.5 0 1.5 0ZM17.693 2.81799C19.039 2.81799 19.713 4.44501 18.761 5.396C18.761 5.396 13.192 10.965 13.192 10.965C12.8919 11.2651 12.4849 11.4337 12.0605 11.4337C11.6361 11.4337 11.2291 11.2651 10.929 10.965C10.929 10.965 8.52499 8.561 8.52499 8.561C8.52499 8.561 6.05 11.036 6.05 11.036C5.46402 11.6217 4.51421 11.6215 3.9285 11.0355C3.3428 10.4495 3.34303 9.49969 3.929 8.914C3.929 8.914 7.394 5.45001 7.394 5.45001C8.01875 4.82565 9.03125 4.82565 9.65601 5.45001C9.65601 5.45001 12.061 7.85501 12.061 7.85501C12.061 7.85501 14.242 5.673 14.242 5.673C13.609 5.37125 13.2696 4.67123 13.4246 3.98737C13.5797 3.3035 14.1878 2.8183 14.889 2.819C14.889 2.819 17.693 2.81799 17.693 2.81799Z" style="fill:#6b9071;mix-blend-mode:normal;" />
</svg>