<?xml version="1.0" encoding="utf-8"?>
<svg width="21.506" height="18.895" viewBox="0 0 21.506 18.895" fill="none" stroke="none" version="1.1" xmlns:xlink="http://www.w3.org/1999/xlink" xmlns="http://www.w3.org/2000/svg">
  <g id="Группа">
    <path id="Фигура" d="M16.1722 9.01161e-09C16.8313 -6.24567e-05 17.4481 0.324623 17.8212 0.868001C17.8212 0.868001 17.9082 1.008 17.9082 1.008C17.9082 1.008 21.2422 6.84 21.2422 6.84C21.6591 7.56917 21.576 8.48118 21.0342 9.123C21.0342 9.123 20.9202 9.246 20.9202 9.246C20.9202 9.246 11.6372 18.529 11.6372 18.529C11.1863 18.9798 10.4684 19.019 9.97116 18.62C9.97116 18.62 9.86916 18.53 9.86916 18.53C9.86916 18.53 0.586156 9.246 0.586156 9.246C-0.00783276 8.65227 -0.167616 7.75069 0.186156 6.989C0.186156 6.989 0.264156 6.839 0.264156 6.839C0.264156 6.839 3.59716 1.007 3.59716 1.007C3.92418 0.434665 4.51222 0.0602222 5.16916 0.00599886C5.16916 0.00599886 5.33216 9.01161e-09 5.33216 9.01161e-09C5.33216 9.01161e-09 16.1722 9.01161e-09 16.1722 9.01161e-09ZM6.04516 6.293C5.65478 6.6835 5.65478 7.3165 6.04516 7.707C6.04516 7.707 9.86816 11.53 9.86816 11.53C10.1026 11.7645 10.4206 11.8962 10.7522 11.8962C11.0837 11.8962 11.4017 11.7645 11.6362 11.53C11.6362 11.53 15.4592 7.707 15.4592 7.707C15.7191 7.45593 15.8234 7.08412 15.7319 6.73449C15.6403 6.38486 15.3673 6.11182 15.0177 6.0203C14.668 5.92879 14.2962 6.03304 14.0452 6.293C14.0452 6.293 10.7522 9.586 10.7522 9.586C10.7522 9.586 7.45916 6.293 7.45916 6.293C7.06866 5.90262 6.43566 5.90262 6.04516 6.293C6.04516 6.293 6.04516 6.293 6.04516 6.293Z" style="fill:#6b9071;fill-rule:evenodd;mix-blend-mode:normal;" />
  </g>
</svg>