<?xml version="1.0" encoding="utf-8"?>
<svg width="20" height="18" viewBox="0 0 20 18" fill="none" stroke="none" version="1.1" xmlns:xlink="http://www.w3.org/1999/xlink" xmlns="http://www.w3.org/2000/svg">
  <path id="Фигура" d="M12 0C13.6569 0 15 1.34315 15 3C15 3 18 3 18 3C19.1046 3 20 3.89543 20 5C20 5 20 16 20 16C20 17.1046 19.1046 18 18 18C18 18 2 18 2 18C0.895431 18 0 17.1046 0 16C0 16 0 5 0 5C0 3.89543 0.895431 3 2 3C2 3 5 3 5 3C5 1.34315 6.34315 0 8 0C8 0 12 0 12 0ZM17 7C17 7 3 7 3 7C2.47091 7.00059 2.03383 7.41321 2.00283 7.94139C1.97182 8.46958 2.35761 8.93051 2.883 8.993C2.883 8.993 3 9 3 9L9 9C9 9 9 10 9 10C9.00058 10.5291 9.41319 10.9662 9.94138 10.9972C10.4696 11.0282 10.9305 10.6424 10.993 10.117C10.993 10.117 11 10 11 10L11 9C11 9 17 9 17 9C17.5291 8.99941 17.9662 8.58679 17.9972 8.05861C18.0282 7.53042 17.6424 7.06949 17.117 7.007C17.117 7.007 17 7 17 7ZM12 2C12 2 8 2 8 2C7.49302 2.00007 7.06632 2.37951 7.007 2.883C7.007 2.883 7 3 7 3C7 3 13 3 13 3C12.9998 2.49281 12.6203 2.06618 12.1168 2.00698C12.1168 2.00698 12 2 12 2Z" style="fill:#6b9071;mix-blend-mode:normal;" />
</svg>