<svg width="216" height="38" viewBox="0 0 216 38" fill="none" xmlns="http://www.w3.org/2000/svg">
<path d="M26.0442 8.52639C25.1084 7.83534 24.1078 7.27025 23.0749 6.82754C17.5428 4.45563 10.8878 5.52461 6.37428 10.0417C3.10615 13.3098 1.64125 17.7009 1.98678 21.9696C2.00118 22.1748 2.01918 22.3764 2.04797 22.5743C2.05157 22.5923 2.05517 22.6067 2.05517 22.6211C3.03057 27.9012 9.73599 24.8418 16.2507 18.3272L26.0442 8.52639Z" fill="url(#paint0_linear_2002_438)"/>
<path d="M31.1264 15.0236C30.6981 13.969 30.1402 12.9504 29.4636 11.9966L19.6916 21.7686C13.6376 27.8225 10.5675 34.0385 14.3971 35.6725C14.9766 35.7769 15.5668 35.8489 16.1535 35.8849C20.3395 36.144 24.6082 34.6755 27.8079 31.4758C32.253 27.0307 33.358 20.5088 31.1264 15.0236Z" fill="url(#paint1_linear_2002_438)"/>
<path d="M36.7987 1.12988L24.9824 3.64577L27.8006 6.46399C25.965 8.29961 22.4593 11.9025 16.0382 18.32C15.3507 19.0074 14.6597 19.6589 13.9758 20.2672C8.05505 25.5401 2.451 27.7212 1.13367 23.5281C1.20925 23.9852 1.30283 24.4423 1.41801 24.8958C3.02328 31.2053 8.15583 35.69 14.1774 36.7698C14.145 36.759 14.109 36.7446 14.0766 36.7302C10.9956 35.4164 12.1222 31.3025 15.6495 26.5911C16.7725 25.0902 18.1402 23.5281 19.6951 21.9732C27.1239 14.5443 29.863 11.7081 31.4538 10.1172L34.2793 12.9427L36.7987 1.12988Z" fill="#090E0B"/>
<path d="M36.7987 1.12988L24.9824 3.64577L27.8078 6.47119C26.2097 8.09805 22.2361 12.122 16.0382 18.32C15.3507 19.0074 14.6597 19.6589 13.9758 20.2672C8.05505 25.5401 2.451 27.7212 1.13367 23.5281C1.20925 23.9852 1.30283 24.4423 1.41801 24.8958C3.02328 31.2053 8.15583 35.69 14.1774 36.7698C14.145 36.759 14.109 36.7446 14.0766 36.7302C10.9956 35.4164 12.1222 31.3025 15.6495 26.5911C16.7725 25.0902 18.1402 23.5281 19.6951 21.9732C26.7424 14.9258 30.0969 11.521 31.4646 10.128L34.2793 12.9427L36.7987 1.12988Z" fill="#07B96A"/>
<path d="M54.6526 31.9904C52.6495 31.9904 50.8968 31.6421 49.3945 30.9454C47.914 30.2269 46.673 29.2798 45.6715 28.1041C44.6699 26.9066 43.9188 25.5676 43.418 24.0871C42.9173 22.6065 42.6669 21.0934 42.6669 19.5475C42.6669 18.0235 42.9173 16.5212 43.418 15.0406C43.9188 13.5601 44.6699 12.232 45.6715 11.0563C46.673 9.85881 47.914 8.91171 49.3945 8.215C50.8968 7.51828 52.6495 7.16992 54.6526 7.16992C56.329 7.16992 57.7551 7.38765 58.9308 7.8231C60.1283 8.23677 61.119 8.78108 61.9028 9.45602C62.7084 10.1092 63.3506 10.8168 63.8296 11.5788C64.3304 12.3191 64.7005 13.0267 64.94 13.7016C65.1795 14.3548 65.3319 14.8991 65.3972 15.3346C65.4843 15.7482 65.5279 15.9551 65.5279 15.9551H60.5311C60.5311 15.9551 60.4876 15.8136 60.4005 15.5305C60.3352 15.2257 60.1936 14.8665 59.9759 14.4528C59.7582 14.0173 59.4316 13.5928 58.9962 13.1791C58.5825 12.7654 58.0164 12.4171 57.2979 12.134C56.6012 11.8292 55.7303 11.6768 54.6852 11.6768C53.1829 11.6768 51.9201 12.0687 50.8968 12.8525C49.8953 13.6146 49.1333 14.5943 48.6107 15.7918C48.11 16.9893 47.8596 18.2412 47.8596 19.5475C47.8596 20.8539 48.11 22.1167 48.6107 23.3359C49.1333 24.5334 49.8953 25.524 50.8968 26.3079C51.9201 27.0699 53.1829 27.4509 54.6852 27.4509C55.7303 27.4509 56.6012 27.3094 57.2979 27.0263C58.0164 26.7433 58.5825 26.3949 58.9962 25.9813C59.4316 25.5458 59.7582 25.1213 59.9759 24.7076C60.1936 24.2721 60.3352 23.9129 60.4005 23.6298C60.4876 23.3468 60.5311 23.2053 60.5311 23.2053H65.5279C65.5279 23.2053 65.4843 23.423 65.3972 23.8585C65.3319 24.2721 65.1795 24.8164 64.94 25.4914C64.7005 26.1446 64.3304 26.8522 63.8296 27.6142C63.3506 28.3545 62.7084 29.0621 61.9028 29.737C61.119 30.3902 60.1283 30.9345 58.9308 31.3699C57.7551 31.7836 56.329 31.9904 54.6526 31.9904Z" fill="url(#paint2_linear_2002_438)"/>
<path d="M76.9347 31.9904C74.9969 31.9904 73.3531 31.5768 72.0032 30.7494C70.6533 29.9003 69.6191 28.8008 68.9006 27.4509C68.2039 26.0792 67.8556 24.5987 67.8556 23.0093C67.8556 21.42 68.2039 19.9503 68.9006 18.6004C69.6191 17.2288 70.6533 16.1293 72.0032 15.3019C73.3531 14.4528 74.9969 14.0282 76.9347 14.0282C78.8724 14.0282 80.5162 14.4528 81.8661 15.3019C83.216 16.1293 84.2393 17.2288 84.936 18.6004C85.6545 19.9503 86.0137 21.42 86.0137 23.0093C86.0137 24.5987 85.6545 26.0792 84.936 27.4509C84.2393 28.8008 83.216 29.9003 81.8661 30.7494C80.5162 31.5768 78.8724 31.9904 76.9347 31.9904ZM76.9347 27.9408C77.8055 27.9408 78.5349 27.7122 79.1228 27.2549C79.7324 26.7977 80.2005 26.199 80.5271 25.4587C80.8537 24.6967 81.017 23.8802 81.017 23.0093C81.017 22.1167 80.8537 21.3002 80.5271 20.5599C80.2005 19.8197 79.7324 19.2209 79.1228 18.7637C78.5349 18.3065 77.8055 18.0779 76.9347 18.0779C76.0638 18.0779 75.3235 18.3065 74.7139 18.7637C74.1042 19.2209 73.6361 19.8197 73.3095 20.5599C73.0047 21.3002 72.8523 22.1167 72.8523 23.0093C72.8523 23.8802 73.0047 24.6967 73.3095 25.4587C73.6361 26.199 74.1042 26.7977 74.7139 27.2549C75.3235 27.7122 76.0638 27.9408 76.9347 27.9408Z" fill="url(#paint3_linear_2002_438)"/>
<path d="M94.3156 31.9904C93.0964 31.9904 92.084 31.7292 91.2784 31.2066C90.4946 30.6841 89.9067 29.9874 89.5148 29.1165C89.1229 28.2238 88.927 27.2223 88.927 26.1119V14.3548H93.8584V25.1321C93.8584 25.9595 94.0761 26.6344 94.5116 27.157C94.947 27.6577 95.5893 27.9081 96.4385 27.9081C97.1569 27.9081 97.723 27.7339 98.1367 27.3856C98.5721 27.0372 98.8878 26.5909 99.0838 26.0466C99.2798 25.5023 99.3777 24.9253 99.3777 24.3157V14.3548H104.342V31.6639H99.3777V29.2145H99.1818C98.8116 29.8894 98.2347 30.5208 97.4509 31.1087C96.6888 31.6965 95.6438 31.9904 94.3156 31.9904Z" fill="url(#paint4_linear_2002_438)"/>
<path d="M107.473 31.6639V14.3548H112.438V16.8369H112.601C112.797 16.4885 113.08 16.0966 113.45 15.6612C113.842 15.2257 114.354 14.8447 114.985 14.5181C115.638 14.1915 116.465 14.0282 117.467 14.0282C118.817 14.0282 119.916 14.3439 120.766 14.9753C121.615 15.585 122.235 16.3796 122.627 17.3594C123.019 18.3174 123.215 19.3298 123.215 20.3966V31.6639H118.251V21.2458C118.251 20.4184 118.022 19.689 117.565 19.0576C117.13 18.4262 116.422 18.1105 115.442 18.1105C114.702 18.1105 114.114 18.2847 113.679 18.6331C113.243 18.9814 112.927 19.4278 112.732 19.9721C112.536 20.5164 112.438 21.0934 112.438 21.703V31.6639H107.473Z" fill="url(#paint5_linear_2002_438)"/>
<path d="M134.15 31.9904C132.801 31.9904 131.723 31.7945 130.917 31.4026C130.112 30.9889 129.502 30.4773 129.088 29.8676C128.675 29.2362 128.403 28.5722 128.272 27.8755C128.141 27.1787 128.076 26.5365 128.076 25.9486V18.3065H125.137V14.3548H128.076V10.0765H133.04V14.3548H136.73V18.3065H133.04V25.818C133.04 26.5365 133.225 27.0917 133.595 27.4836C133.987 27.8755 134.629 28.0714 135.522 28.0714C135.914 28.0714 136.273 28.0388 136.6 27.9734C136.926 27.9081 137.09 27.8755 137.09 27.8755V31.6965C137.09 31.6965 136.796 31.7401 136.208 31.8272C135.62 31.936 134.934 31.9904 134.15 31.9904Z" fill="url(#paint6_linear_2002_438)"/>
<path d="M144.78 31.6639L138.771 7.49651H143.8L148.079 25.0342L152.553 7.49651H157.68L162.154 25.0015L166.4 7.49651H171.462L165.42 31.6639H159.019L155.1 16.2817L151.214 31.6639H144.78Z" fill="url(#paint7_linear_2002_438)"/>
<path d="M176.545 12.0034C175.674 12.0034 174.967 11.7312 174.422 11.1869C173.878 10.6208 173.606 9.95679 173.606 9.19476C173.606 8.38918 173.878 7.71423 174.422 7.16992C174.967 6.60384 175.674 6.3208 176.545 6.3208C177.372 6.3208 178.069 6.60384 178.635 7.16992C179.201 7.71423 179.484 8.38918 179.484 9.19476C179.484 9.95679 179.201 10.6208 178.635 11.1869C178.069 11.7312 177.372 12.0034 176.545 12.0034ZM174.063 31.6639V14.3548H179.027V31.6639H174.063Z" fill="url(#paint8_linear_2002_438)"/>
<path d="M189.899 31.9904C188.462 31.9904 187.276 31.7945 186.339 31.4026C185.403 31.0107 184.652 30.5317 184.086 29.9656C183.542 29.3778 183.128 28.8008 182.845 28.2347C182.584 27.6469 182.409 27.157 182.322 26.7651C182.257 26.3732 182.224 26.1772 182.224 26.1772H186.829C186.829 26.1772 186.862 26.2861 186.927 26.5038C186.993 26.7215 187.134 26.9719 187.352 27.2549C187.591 27.538 187.929 27.7884 188.364 28.0061C188.8 28.2238 189.387 28.3327 190.128 28.3327C191.042 28.3327 191.663 28.1476 191.989 27.7775C192.338 27.4074 192.512 27.0372 192.512 26.6671C192.512 25.8833 191.87 25.3608 190.585 25.0995L188.234 24.6423C187.232 24.4463 186.285 24.1633 185.392 23.7931C184.521 23.4012 183.814 22.8678 183.269 22.1929C182.747 21.4962 182.486 20.6035 182.486 19.5149C182.486 18.4698 182.758 17.5336 183.302 16.7062C183.846 15.8789 184.619 15.2257 185.621 14.7467C186.644 14.2677 187.863 14.0282 189.279 14.0282C190.607 14.0282 191.706 14.2133 192.577 14.5834C193.47 14.9318 194.177 15.3781 194.7 15.9224C195.223 16.445 195.614 16.9784 195.876 17.5227C196.137 18.0452 196.3 18.4916 196.366 18.8617C196.453 19.2101 196.496 19.3842 196.496 19.3842H192.055C192.055 19.3842 191.989 19.2427 191.859 18.9597C191.728 18.6549 191.456 18.3609 191.042 18.0779C190.65 17.7731 190.041 17.6207 189.213 17.6207C188.364 17.6207 187.776 17.7948 187.45 18.1432C187.123 18.4698 186.96 18.8182 186.96 19.1883C186.96 19.6237 187.145 19.9503 187.515 20.168C187.907 20.3858 188.408 20.5599 189.017 20.6906L191.271 21.1478C192.926 21.4744 194.286 22.0513 195.353 22.8787C196.42 23.6843 196.953 24.86 196.953 26.4058C196.953 27.4509 196.681 28.398 196.137 29.2471C195.593 30.0962 194.798 30.7712 193.753 31.272C192.708 31.7509 191.423 31.9904 189.899 31.9904Z" fill="url(#paint9_linear_2002_438)"/>
<path d="M207.999 31.9904C206.475 31.9904 205.157 31.7401 204.047 31.2393C202.937 30.7168 202.022 30.0309 201.304 29.1818C200.585 28.3109 200.041 27.342 199.671 26.2752C199.322 25.2083 199.148 24.1088 199.148 22.9767C199.148 21.8881 199.311 20.8212 199.638 19.7761C199.986 18.7093 200.509 17.7404 201.206 16.8695C201.924 15.9986 202.828 15.3128 203.916 14.812C205.027 14.2895 206.333 14.0282 207.835 14.0282C209.425 14.0282 210.829 14.3766 212.048 15.0733C213.289 15.77 214.258 16.8042 214.955 18.1759C215.652 19.5258 216 21.1696 216 23.1073V24.3157H204.145C204.21 25.3608 204.569 26.2643 205.223 27.0263C205.898 27.7884 206.823 28.1694 207.999 28.1694C208.674 28.1694 209.218 28.0714 209.632 27.8755C210.067 27.6577 210.404 27.4182 210.644 27.157C210.883 26.8739 211.047 26.6236 211.134 26.4058C211.221 26.1881 211.264 26.0792 211.264 26.0792H215.837C215.837 26.0792 215.782 26.2861 215.673 26.6998C215.586 27.0917 215.39 27.5815 215.086 28.1694C214.781 28.7572 214.334 29.3451 213.747 29.933C213.18 30.5208 212.429 31.0107 211.493 31.4026C210.557 31.7945 209.392 31.9904 207.999 31.9904ZM204.145 21.3111H211.232C211.167 20.1136 210.807 19.2209 210.154 18.6331C209.501 18.0452 208.695 17.7513 207.737 17.7513C206.779 17.7513 205.963 18.067 205.288 18.6984C204.613 19.308 204.232 20.1789 204.145 21.3111Z" fill="url(#paint10_linear_2002_438)"/>
<defs>
<linearGradient id="paint0_linear_2002_438" x1="13.9908" y1="5.60156" x2="13.9908" y2="25.3101" gradientUnits="userSpaceOnUse">
<stop stop-color="white"/>
<stop offset="1" stop-color="white" stop-opacity="0.8"/>
</linearGradient>
<linearGradient id="paint1_linear_2002_438" x1="22.4765" y1="11.9966" x2="22.4765" y2="35.914" gradientUnits="userSpaceOnUse">
<stop stop-color="white"/>
<stop offset="1" stop-color="white" stop-opacity="0.8"/>
</linearGradient>
<linearGradient id="paint2_linear_2002_438" x1="129.333" y1="6.3208" x2="129.333" y2="31.9904" gradientUnits="userSpaceOnUse">
<stop stop-color="white"/>
<stop offset="1" stop-color="white" stop-opacity="0.8"/>
</linearGradient>
<linearGradient id="paint3_linear_2002_438" x1="129.333" y1="6.3208" x2="129.333" y2="31.9904" gradientUnits="userSpaceOnUse">
<stop stop-color="white"/>
<stop offset="1" stop-color="white" stop-opacity="0.8"/>
</linearGradient>
<linearGradient id="paint4_linear_2002_438" x1="129.333" y1="6.3208" x2="129.333" y2="31.9904" gradientUnits="userSpaceOnUse">
<stop stop-color="white"/>
<stop offset="1" stop-color="white" stop-opacity="0.8"/>
</linearGradient>
<linearGradient id="paint5_linear_2002_438" x1="129.333" y1="6.3208" x2="129.333" y2="31.9904" gradientUnits="userSpaceOnUse">
<stop stop-color="white"/>
<stop offset="1" stop-color="white" stop-opacity="0.8"/>
</linearGradient>
<linearGradient id="paint6_linear_2002_438" x1="129.333" y1="6.3208" x2="129.333" y2="31.9904" gradientUnits="userSpaceOnUse">
<stop stop-color="white"/>
<stop offset="1" stop-color="white" stop-opacity="0.8"/>
</linearGradient>
<linearGradient id="paint7_linear_2002_438" x1="129.333" y1="6.3208" x2="129.333" y2="31.9904" gradientUnits="userSpaceOnUse">
<stop stop-color="white"/>
<stop offset="1" stop-color="white" stop-opacity="0.8"/>
</linearGradient>
<linearGradient id="paint8_linear_2002_438" x1="129.333" y1="6.3208" x2="129.333" y2="31.9904" gradientUnits="userSpaceOnUse">
<stop stop-color="white"/>
<stop offset="1" stop-color="white" stop-opacity="0.8"/>
</linearGradient>
<linearGradient id="paint9_linear_2002_438" x1="129.333" y1="6.3208" x2="129.333" y2="31.9904" gradientUnits="userSpaceOnUse">
<stop stop-color="white"/>
<stop offset="1" stop-color="white" stop-opacity="0.8"/>
</linearGradient>
<linearGradient id="paint10_linear_2002_438" x1="129.333" y1="6.3208" x2="129.333" y2="31.9904" gradientUnits="userSpaceOnUse">
<stop stop-color="white"/>
<stop offset="1" stop-color="white" stop-opacity="0.8"/>
</linearGradient>
</defs>
</svg>
