<svg width="40" height="42" viewBox="0 0 40 42" fill="none" xmlns="http://www.w3.org/2000/svg">
<path d="M28.796 5.89557C28.7321 5.85817 28.6524 5.85729 28.5877 5.89557L27.9844 6.25279V16.5019H30.7661C31.567 16.5019 32.2184 17.1697 32.2184 17.9905V22.1908H36.874C36.9338 22.1908 36.9935 22.1934 37.0524 22.1976V10.7815L28.796 5.89557ZM35.8077 14.1628C35.8077 14.9836 35.1562 15.6513 34.3554 15.6513H32.6956C31.8948 15.6513 31.2434 14.9836 31.2434 14.1628V12.4615C31.2434 11.6406 31.8948 10.9729 32.6956 10.9729H34.3554C35.1563 10.9729 35.8077 11.6407 35.8077 12.4615V14.1628Z" fill="url(#paint0_linear_64_3384)"/>
<path d="M39.2948 9.53135C39.2948 9.64362 39.2666 9.75085 39.2118 9.8495C39.04 10.154 38.6583 10.2586 38.3612 10.0826L37.996 9.86744C37.9894 9.8632 37.9827 9.85895 37.9761 9.85471L29.4167 4.79001C28.9752 4.52976 28.4284 4.52631 27.9844 4.77984V3.30648L28.1736 3.19501C28.4931 3.00531 28.8906 3.00531 29.2109 3.19501L38.9835 8.97753C39.1752 9.09157 39.2948 9.30337 39.2948 9.53135Z" fill="url(#paint1_linear_64_3384)"/>
<path d="M30.9736 22.1913H27.9844V17.7783H30.7661C30.8806 17.7783 30.9736 17.8736 30.9736 17.991V22.1913Z" fill="url(#paint2_linear_64_3384)"/>
<path d="M34.563 12.4617V14.163C34.563 14.2804 34.4701 14.3757 34.3555 14.3757H32.6958C32.5813 14.3757 32.4883 14.2804 32.4883 14.163V12.4617C32.4883 12.3443 32.5813 12.249 32.6958 12.249H34.3555C34.4701 12.2491 34.563 12.3443 34.563 12.4617Z" fill="url(#paint3_linear_64_3384)"/>
<path d="M24.8716 0.5H19.0625C18.0327 0.5 17.1953 1.35828 17.1953 2.41387V11.1634C18.1131 12.9743 18.577 14.8644 18.577 16.8005C18.577 17.6613 18.4285 18.4617 18.1355 19.1797C18.0144 19.474 18.0758 19.8083 18.2899 20.0328C18.7704 20.5355 19.0352 21.1114 19.0352 21.6541C19.0352 21.8489 19.0053 22.0275 18.9464 22.1908H26.7389V2.41387C26.7389 1.35828 25.9016 0.5 24.8716 0.5ZM21.1372 16.0239C21.1372 16.376 20.8584 16.6618 20.5148 16.6618C20.1712 16.6618 19.8923 16.376 19.8923 16.0239V14.7479C19.8923 14.3957 20.1712 14.1099 20.5148 14.1099C20.8584 14.1099 21.1372 14.3957 21.1372 14.7479V16.0239ZM21.1372 12.1961C21.1372 12.5482 20.8584 12.834 20.5148 12.834C20.1712 12.834 19.8923 12.5482 19.8923 12.1961V10.9201C19.8923 10.5679 20.1712 10.2821 20.5148 10.2821C20.8584 10.2821 21.1372 10.5679 21.1372 10.9201V12.1961ZM21.1372 8.36824C21.1372 8.72042 20.8584 9.00622 20.5148 9.00622C20.1712 9.00622 19.8923 8.72042 19.8923 8.36824V7.09235C19.8923 6.74017 20.1712 6.45437 20.5148 6.45437C20.8584 6.45437 21.1372 6.74017 21.1372 7.09235V8.36824ZM21.1372 4.54042C21.1372 4.89261 20.8584 5.1784 20.5148 5.1784C20.1712 5.1784 19.8923 4.89261 19.8923 4.54042V3.26454C19.8923 2.91235 20.1712 2.62655 20.5148 2.62655C20.8584 2.62655 21.1372 2.91235 21.1372 3.26454V4.54042ZM24.0418 16.0239C24.0418 16.376 23.763 16.6618 23.4194 16.6618C23.0758 16.6618 22.797 16.376 22.797 16.0239V14.7479C22.797 14.3957 23.0758 14.1099 23.4194 14.1099C23.763 14.1099 24.0418 14.3957 24.0418 14.7479V16.0239ZM24.0418 12.1961C24.0418 12.5482 23.763 12.834 23.4194 12.834C23.0758 12.834 22.797 12.5482 22.797 12.1961V10.9201C22.797 10.5679 23.0758 10.2821 23.4194 10.2821C23.763 10.2821 24.0418 10.5679 24.0418 10.9201V12.1961ZM24.0418 8.36824C24.0418 8.72042 23.763 9.00622 23.4194 9.00622C23.0758 9.00622 22.797 8.72042 22.797 8.36824V7.09235C22.797 6.74017 23.0758 6.45437 23.4194 6.45437C23.763 6.45437 24.0418 6.74017 24.0418 7.09235V8.36824ZM24.0418 4.54042C24.0418 4.89261 23.763 5.1784 23.4194 5.1784C23.0758 5.1784 22.797 4.89261 22.797 4.54042V3.26454C22.797 2.91235 23.0758 2.62655 23.4194 2.62655C23.763 2.62655 24.0418 2.91235 24.0418 3.26454V4.54042Z" fill="url(#paint4_linear_64_3384)"/>
<path d="M35.3958 26.0272L31.2946 30.231C31.2829 30.2183 31.2714 30.2063 31.2589 30.1936C30.6124 29.5302 29.7526 29.1644 28.8364 29.1644H23.9335C23.7178 29.1644 23.5111 29.0972 23.3369 28.9721L23.1112 28.8088C21.6 27.7183 19.8241 27.1416 17.9759 27.1416H15.3527C13.3884 27.1416 11.4514 27.8195 9.89878 29.0504L9.70042 29.2069C9.51949 29.3497 9.29378 29.4289 9.06558 29.4289H6.55261C6.28121 28.4481 5.3991 27.7276 4.35675 27.7276H2.95511L2.13019 24.8278C2.03808 24.5037 2.09785 24.1626 2.29535 23.8921C2.49371 23.6216 2.79574 23.4668 3.12605 23.4668H36.8738C37.2041 23.4668 37.5061 23.6216 37.7045 23.8921C37.902 24.1626 37.9618 24.5036 37.8696 24.8278L37.8207 25.0005C36.9427 24.9997 36.0647 25.3425 35.3958 26.0272Z" fill="url(#paint5_linear_64_3384)"/>
<path d="M17.4012 20.9261C16.8353 20.334 16.6726 19.4553 16.988 18.6863C17.2162 18.1266 17.3323 17.4912 17.3323 16.8005C17.3323 14.201 16.3589 10.323 11.7548 6.53857H6.7407C2.13656 10.323 1.16312 14.201 1.16312 16.8005C1.16312 17.4912 1.2793 18.1266 1.50836 18.688C1.82289 19.4553 1.66023 20.334 1.09344 20.926C0.807109 21.2263 0.705078 21.4985 0.705078 21.6541C0.705078 21.9212 1.36234 22.1909 2.83203 22.1909H15.6636C17.1333 22.1909 17.7905 21.9213 17.7905 21.6541C17.7905 21.4985 17.6884 21.2263 17.4012 20.9261ZM9.87015 18.1768V18.5366C9.87015 18.8896 9.59133 19.1746 9.24773 19.1746C8.90414 19.1746 8.62531 18.8896 8.62531 18.5366V18.1811C8.30828 18.0798 8.01703 17.9004 7.77469 17.652C7.51742 17.3874 7.3307 17.0574 7.23695 16.6967C7.14734 16.3565 7.34398 16.0069 7.67594 15.915C8.00789 15.824 8.34984 16.0256 8.43859 16.3658C8.47679 16.5105 8.55148 16.6432 8.65523 16.7495C8.81789 16.9162 9.03695 17.0055 9.26515 17.0005C9.71742 16.992 10.0859 16.5913 10.0859 16.109C10.0859 15.9712 10.0453 15.8394 9.96812 15.7263C9.89179 15.6148 9.7839 15.5306 9.65695 15.483L8.41133 15.0185C7.66609 14.7403 7.16484 14.008 7.16484 13.1948V13.1838C7.16484 12.2217 7.78226 11.3941 8.62539 11.115V10.7552C8.62539 10.4031 8.90422 10.1173 9.24781 10.1173C9.5914 10.1173 9.87023 10.4031 9.87023 10.7552V11.1142C10.188 11.2163 10.4819 11.3958 10.72 11.64C10.9789 11.9053 11.1648 12.2354 11.2586 12.5961C11.3474 12.9363 11.1498 13.286 10.8179 13.3769C10.4859 13.468 10.1448 13.2655 10.0561 12.9253C10.0187 12.7815 9.94406 12.6489 9.83953 12.5425C9.67773 12.3758 9.45781 12.2865 9.23039 12.2915C8.77812 12.3009 8.40969 12.7015 8.40969 13.1839V13.1949C8.40969 13.4731 8.58148 13.724 8.83625 13.8193L10.0844 14.2846C10.452 14.4232 10.7641 14.6683 10.9873 14.9949C11.2122 15.3241 11.3309 15.7086 11.3309 16.1092C11.3307 17.071 10.7133 17.8987 9.87015 18.1768Z" fill="url(#paint6_linear_64_3384)"/>
<path d="M11.7022 5.26265H6.79263C6.03747 4.40861 4.44075 2.39008 5.31544 1.49353C5.57685 1.22559 6.08474 1.29534 6.43911 1.43651C7.03333 1.67387 7.69888 1.5258 8.13458 1.05887C8.43747 0.734789 8.90552 0.5 9.24739 0.5C9.58935 0.5 10.0573 0.734789 10.3594 1.05887C10.7959 1.52588 11.4615 1.67387 12.0549 1.43651C12.41 1.29534 12.9179 1.22559 13.1793 1.49265C14.054 2.39008 12.4574 4.40861 11.7022 5.26265Z" fill="url(#paint7_linear_64_3384)"/>
<path d="M39.3627 30.0913L31.6531 37.9927C30.517 39.1572 29.0059 39.7986 27.3992 39.7986H6.64062V30.7046H9.06719C9.5693 30.7046 10.0647 30.531 10.4614 30.2171L10.6614 30.0598C11.9975 29.0008 13.6639 28.4172 15.3544 28.4172H17.9776C19.5677 28.4172 21.0963 28.9131 22.3959 29.8505L22.6208 30.0138C23.0075 30.2928 23.4614 30.44 23.9353 30.44H28.8382C29.4208 30.44 29.9685 30.6722 30.3802 31.095C30.7926 31.5169 31.0191 32.0783 31.0191 32.6755C31.0191 33.9088 30.0407 34.9117 28.8382 34.9117H21.454C21.1096 34.9117 20.8316 35.1975 20.8316 35.5497C20.8316 35.9019 21.1096 36.1877 21.454 36.1877H28.8382C30.727 36.1877 32.2639 34.6123 32.2639 32.6755C32.2639 32.2008 32.1726 31.7406 31.9984 31.3153L36.278 26.9286C37.1287 26.0576 38.5121 26.0576 39.3627 26.9286C40.2133 27.8005 40.2133 29.2186 39.3627 30.0913Z" fill="url(#paint8_linear_64_3384)"/>
<path d="M4.35688 29.0034H0.2075C0.0929688 29.0034 0 29.0987 0 29.2161V41.2873C0 41.4046 0.0929688 41.4999 0.2075 41.4999H4.35688C4.92867 41.4999 5.39422 41.0227 5.39422 40.4366V30.0667C5.39422 29.4806 4.92867 29.0034 4.35688 29.0034ZM3.31953 38.4419C3.31953 38.7941 3.0407 39.0799 2.69711 39.0799C2.35352 39.0799 2.07469 38.7941 2.07469 38.4419V37.1659C2.07469 36.813 2.35352 36.528 2.69711 36.528C3.0407 36.528 3.31953 36.8129 3.31953 37.1659V38.4419Z" fill="url(#paint9_linear_64_3384)"/>
<defs>
<linearGradient id="paint0_linear_64_3384" x1="27.4837" y1="5.05067" x2="37.9157" y2="5.59304" gradientUnits="userSpaceOnUse">
<stop stop-color="#A3DCAD"/>
<stop offset="0.504808" stop-color="#D2FFDA"/>
<stop offset="1" stop-color="#A3DCAD"/>
</linearGradient>
<linearGradient id="paint1_linear_64_3384" x1="27.3599" y1="2.69697" x2="40.124" y2="4.59666" gradientUnits="userSpaceOnUse">
<stop stop-color="#A3DCAD"/>
<stop offset="0.504808" stop-color="#D2FFDA"/>
<stop offset="1" stop-color="#A3DCAD"/>
</linearGradient>
<linearGradient id="paint2_linear_64_3384" x1="27.8193" y1="17.5577" x2="31.2537" y2="17.7755" gradientUnits="userSpaceOnUse">
<stop stop-color="#A3DCAD"/>
<stop offset="0.504808" stop-color="#D2FFDA"/>
<stop offset="1" stop-color="#A3DCAD"/>
</linearGradient>
<linearGradient id="paint3_linear_64_3384" x1="32.3737" y1="12.1427" x2="34.7472" y2="12.3595" gradientUnits="userSpaceOnUse">
<stop stop-color="#A3DCAD"/>
<stop offset="0.504808" stop-color="#D2FFDA"/>
<stop offset="1" stop-color="#A3DCAD"/>
</linearGradient>
<linearGradient id="paint4_linear_64_3384" x1="16.6684" y1="-0.584543" x2="27.6585" y2="-0.1318" gradientUnits="userSpaceOnUse">
<stop stop-color="#A3DCAD"/>
<stop offset="0.504808" stop-color="#D2FFDA"/>
<stop offset="1" stop-color="#A3DCAD"/>
</linearGradient>
<linearGradient id="paint5_linear_64_3384" x1="0.109876" y1="23.1286" x2="33.2781" y2="39.5758" gradientUnits="userSpaceOnUse">
<stop stop-color="#A3DCAD"/>
<stop offset="0.504808" stop-color="#D2FFDA"/>
<stop offset="1" stop-color="#A3DCAD"/>
</linearGradient>
<linearGradient id="paint6_linear_64_3384" x1="-0.238291" y1="5.75596" x2="19.2665" y2="7.7494" gradientUnits="userSpaceOnUse">
<stop stop-color="#A3DCAD"/>
<stop offset="0.504808" stop-color="#D2FFDA"/>
<stop offset="1" stop-color="#A3DCAD"/>
</linearGradient>
<linearGradient id="paint7_linear_64_3384" x1="4.5982" y1="0.261868" x2="14.0026" y2="1.81002" gradientUnits="userSpaceOnUse">
<stop stop-color="#A3DCAD"/>
<stop offset="0.504808" stop-color="#D2FFDA"/>
<stop offset="1" stop-color="#A3DCAD"/>
</linearGradient>
<linearGradient id="paint8_linear_64_3384" x1="4.79866" y1="25.5992" x2="41.3313" y2="34.0373" gradientUnits="userSpaceOnUse">
<stop stop-color="#A3DCAD"/>
<stop offset="0.504808" stop-color="#D2FFDA"/>
<stop offset="1" stop-color="#A3DCAD"/>
</linearGradient>
<linearGradient id="paint9_linear_64_3384" x1="-0.29784" y1="28.3786" x2="5.91438" y2="28.6297" gradientUnits="userSpaceOnUse">
<stop stop-color="#A3DCAD"/>
<stop offset="0.504808" stop-color="#D2FFDA"/>
<stop offset="1" stop-color="#A3DCAD"/>
</linearGradient>
</defs>
</svg>
