<svg width="39" height="40" viewBox="0 0 39 40" fill="none" xmlns="http://www.w3.org/2000/svg">
<path d="M7.7544 35.1515C8.07587 35.1515 8.38418 35.0238 8.6115 34.7965C8.83882 34.5692 8.96652 34.2609 8.96652 33.9394C8.96652 33.6179 8.83882 33.3096 8.6115 33.0823C8.38418 32.855 8.07587 32.7273 7.7544 32.7273H4.95433L13.4398 21.4133L14.8827 23.3339C15.0767 23.5885 15.3634 23.7561 15.6805 23.8C15.9975 23.844 16.319 23.7608 16.5749 23.5686C16.8308 23.3763 17.0003 23.0907 17.0464 22.774C17.0925 22.4573 17.0115 22.1352 16.821 21.878L14.894 19.3129C14.7256 19.0863 14.5064 18.9025 14.2541 18.7762C14.0017 18.6498 13.7232 18.5845 13.4409 18.5855H13.4397C13.1572 18.5843 12.8784 18.6495 12.6257 18.7759C12.373 18.9022 12.1535 19.0861 11.9849 19.3129L2.28742 32.2431C2.08502 32.5133 1.96181 32.8344 1.93161 33.1706C1.90141 33.5068 1.96539 33.8448 2.1164 34.1467C2.26741 34.4486 2.49948 34.7025 2.78663 34.88C3.07377 35.0574 3.40465 35.1515 3.74221 35.1515H7.7544Z" fill="#07B96A"/>
<path d="M25.8278 16.9567C25.7506 16.8512 25.6608 16.7556 25.5603 16.6721V13.3333H32.833C33.1545 13.3333 33.4628 13.2056 33.6901 12.9783C33.9174 12.751 34.0451 12.4427 34.0451 12.1212V6.0606C34.0451 5.73912 33.9174 5.43081 33.6901 5.2035C33.4628 4.97618 33.1545 4.84847 32.833 4.84847H25.5603C25.5603 4.527 25.4326 4.21869 25.2053 3.99137C24.978 3.76406 24.6696 3.63635 24.3482 3.63635C24.0267 3.63635 23.7184 3.76406 23.4911 3.99137C23.2638 4.21869 23.1361 4.527 23.1361 4.84847V16.6718C23.0355 16.7552 22.9457 16.8507 22.8685 16.9561L11.9257 32.2757C11.7313 32.5475 11.6156 32.8676 11.5913 33.2009C11.5669 33.5342 11.6349 33.8677 11.7877 34.1649C11.9406 34.4621 12.1723 34.7114 12.4576 34.8854C12.7429 35.0595 13.0706 35.1515 13.4048 35.1515H35.2916C35.6258 35.1515 35.9535 35.0595 36.2387 34.8854C36.524 34.7114 36.7558 34.4621 36.9086 34.1649C37.0615 33.8677 37.1294 33.5342 37.1051 33.2009C37.0808 32.8676 36.965 32.5475 36.7706 32.2757L25.8278 16.9567ZM31.6209 7.27272V10.9091H25.5603V7.27272H31.6209ZM24.3482 19.0554L29.028 25.6073C27.4752 25.5983 25.9516 25.1848 24.6074 24.4076C23.6113 23.8086 22.5063 23.4132 21.3563 23.2441L24.3482 19.0554ZM14.5826 32.7273L19.6391 25.6484C20.9489 25.4821 22.2753 25.7841 23.3841 26.5009C25.0972 27.5022 27.0437 28.0348 29.028 28.0451C29.5757 28.0402 30.1221 27.9897 30.6615 27.8942L34.1138 32.7273H14.5826ZM34.7968 33.6837L34.798 33.6855L34.7986 33.6867L34.7968 33.6837Z" fill="#07B96A"/>
</svg>
