<svg width="30" height="30" viewBox="0 0 30 30" fill="none" xmlns="http://www.w3.org/2000/svg">
<g clip-path="url(#clip0_120_371)">
<path d="M6.875 13.75C9.2875 13.75 11.25 11.7875 11.25 9.375C11.25 6.9625 9.2875 5 6.875 5C4.4625 5 2.5 6.9625 2.5 9.375C2.5 11.7875 4.4625 13.75 6.875 13.75ZM6.875 7.5C7.90875 7.5 8.75 8.34125 8.75 9.375C8.75 10.4087 7.90875 11.25 6.875 11.25C5.84125 11.25 5 10.4087 5 9.375C5 8.34125 5.84125 7.5 6.875 7.5ZM19.375 8.75C21.7875 8.75 23.75 6.7875 23.75 4.375C23.75 1.9625 21.7875 0 19.375 0C16.9625 0 15 1.9625 15 4.375C15 6.7875 16.9625 8.75 19.375 8.75ZM19.375 2.5C20.4088 2.5 21.25 3.34125 21.25 4.375C21.25 5.40875 20.4088 6.25 19.375 6.25C18.3412 6.25 17.5 5.40875 17.5 4.375C17.5 3.34125 18.3412 2.5 19.375 2.5ZM21.25 12.5C16.4263 12.5 12.5 16.4263 12.5 21.25C12.5 26.0737 16.4263 30 21.25 30C26.0737 30 30 26.0737 30 21.25C30 16.4263 26.0737 12.5 21.25 12.5ZM21.25 27.5C17.8037 27.5 15 24.6963 15 21.25C15 17.8037 17.8037 15 21.25 15C24.6963 15 27.5 17.8037 27.5 21.25C27.5 24.6963 24.6963 27.5 21.25 27.5ZM26.2387 20.1475L21.9188 24.3962C21.5338 24.7825 21.01 24.9988 20.4525 24.9988C19.895 24.9988 19.3725 24.7812 18.9788 24.3875L16.6725 22.1525L18.4137 20.3575L20.4513 22.3325L24.4863 18.3638L26.2387 20.1475ZM10 15C10.5962 15 11.1525 15.1525 11.6537 15.4012C11.22 16.11 10.8612 16.8687 10.5925 17.67C10.4137 17.5712 10.2188 17.5 10.0013 17.5H3.75C3.06 17.5 2.5 18.06 2.5 18.75V22.5H0V18.75C0 16.6825 1.6825 15 3.75 15H10ZM12.5 14.1862V13.75C12.5 11.6825 14.1825 10 16.25 10H21.25C17.7138 10 14.5625 11.635 12.5 14.1862Z" fill="#07B96A"/>
</g>
<defs>
<clipPath id="clip0_120_371">
<rect width="30" height="30" fill="white"/>
</clipPath>
</defs>
</svg>
