<svg width="30" height="30" viewBox="0 0 30 30" fill="none" xmlns="http://www.w3.org/2000/svg">
<g clip-path="url(#clip0_120_336)">
<path d="M30 3.06125V6.25C30 7.63125 28.8813 8.75 27.5 8.75H23.75C22.3688 8.75 21.25 7.63125 21.25 6.25V2.5C21.25 1.11875 22.3688 0 23.75 0H27.5C28.0688 0 28.5863 0.1975 29.0063 0.5175L25.6975 3.91L24.31 2.41625L22.5763 4.2175L24.64 6.425C25.2088 7.0225 26.16 7.02625 26.7325 6.43375L30 3.06125ZM24.6413 17.05L22.5775 14.8425L24.3113 13.0412L25.6988 14.535L29.0075 11.1425C28.5875 10.8225 28.0688 10.625 27.5013 10.625H23.7513C22.37 10.625 21.2513 11.7437 21.2513 13.125V16.875C21.2513 18.2563 22.37 19.375 23.7513 19.375H27.5013C28.8825 19.375 30.0013 18.2563 30.0013 16.875V13.6863L26.735 17.0588C26.1613 17.6513 25.21 17.6475 24.6425 17.05H24.6413ZM24.6413 27.675L22.5775 25.4675L24.3113 23.6663L25.6988 25.16L29.0075 21.7675C28.5875 21.4475 28.0688 21.25 27.5013 21.25H23.7513C22.37 21.25 21.2513 22.3687 21.2513 23.75V27.5C21.2513 28.8813 22.37 30 23.7513 30H27.5013C28.8825 30 30.0013 28.8813 30.0013 27.5V24.3112L26.735 27.6838C26.1613 28.2762 25.21 28.2725 24.6425 27.675H24.6413ZM5.625 6.25C7.35125 6.25 8.75 4.85125 8.75 3.125C8.75 1.39875 7.35125 0 5.625 0C3.89875 0 2.5 1.39875 2.5 3.125C2.5 4.85125 3.89875 6.25 5.625 6.25ZM11.25 11.25V21.25H8.75V30H6.25V21.25H5V30H2.5V21.25H0V11.25C0 9.1825 1.6825 7.5 3.75 7.5H7.5C9.5675 7.5 11.25 9.1825 11.25 11.25ZM8.75 11.25C8.75 10.56 8.18875 10 7.5 10H3.75C3.06125 10 2.5 10.56 2.5 11.25V18.75H8.75V11.25ZM13.75 5.625V24.375C13.75 26.0987 15.1525 27.5 16.875 27.5H18.75V25H16.875C16.53 25 16.25 24.7188 16.25 24.375V16.25H18.75V13.75H16.25V5.625C16.25 5.28125 16.53 5 16.875 5H18.75V2.5H16.875C15.1525 2.5 13.75 3.90125 13.75 5.625Z" fill="#07B96A"/>
</g>
<defs>
<clipPath id="clip0_120_336">
<rect width="30" height="30" fill="white"/>
</clipPath>
</defs>
</svg>
