<svg width="30" height="30" viewBox="0 0 30 30" fill="none" xmlns="http://www.w3.org/2000/svg">
<g clip-path="url(#clip0_120_357)">
<path d="M8.8225 6.2025C9.87125 6.2025 10.8162 6.635 11.4962 7.32875C9.84 8.45375 8.74875 10.3525 8.74875 12.5013C8.74875 12.9113 8.79375 13.31 8.87 13.6987C8.85375 13.6987 8.83875 13.7038 8.8225 13.7038C6.75125 13.7038 5.0725 12.025 5.0725 9.95375C5.0725 7.8825 6.75125 6.2025 8.8225 6.2025ZM21.25 6.25C20.1987 6.25 19.2512 6.68625 18.57 7.3825C20.1863 8.51375 21.25 10.3813 21.25 12.5C21.25 12.9237 21.2062 13.3375 21.125 13.7375C21.1675 13.7387 21.2075 13.75 21.25 13.75C23.3212 13.75 25 12.0712 25 10C25 7.92875 23.3212 6.25 21.25 6.25ZM15 16.25C17.0712 16.25 18.75 14.5712 18.75 12.5C18.75 10.4288 17.0712 8.75 15 8.75C12.9288 8.75 11.25 10.4288 11.25 12.5C11.25 14.5712 12.9288 16.25 15 16.25ZM15 18.75C12.8075 18.75 10.8312 20.0788 10.0812 22.0575C9.83625 22.7038 10.1613 23.425 10.8075 23.67C11.4513 23.9138 12.175 23.59 12.42 22.9437C12.8038 21.93 13.8413 21.2512 15.0013 21.2512C16.1613 21.2512 17.1987 21.9312 17.5825 22.9437C17.7712 23.4425 18.2475 23.7512 18.7513 23.7512C18.8988 23.7512 19.0487 23.725 19.1937 23.6712C19.8387 23.4263 20.1637 22.705 19.92 22.0588C19.17 20.0812 17.1938 18.7513 15.0013 18.7513L15 18.75ZM19.625 16.4963C18.9662 16.7037 18.6 17.405 18.8075 18.0638C19.015 18.7213 19.7188 19.0863 20.375 18.8812C20.6537 18.7937 20.9475 18.75 21.25 18.75C22.41 18.75 23.4475 19.43 23.8313 20.4425C24.02 20.9412 24.4963 21.25 25 21.25C25.1475 21.25 25.2975 21.2238 25.4425 21.17C26.0875 20.925 26.4125 20.2038 26.1687 19.5575C25.4187 17.58 23.4425 16.25 21.25 16.25C20.6925 16.25 20.1462 16.3325 19.625 16.4963ZM8.75 16.25C6.5575 16.25 4.58125 17.5788 3.83125 19.5575C3.58625 20.2038 3.91125 20.925 4.5575 21.17C4.70375 21.225 4.8525 21.25 5 21.25C5.50375 21.25 5.98 20.9425 6.16875 20.4425C6.5525 19.4288 7.59 18.75 8.75 18.75C9.0525 18.75 9.3475 18.7937 9.625 18.8812C10.2812 19.0863 10.985 18.7213 11.1925 18.0638C11.4 17.405 11.0338 16.7037 10.375 16.4963C9.85375 16.3325 9.3075 16.25 8.75 16.25ZM8.75 27.5H6.25C4.1825 27.5 2.5 25.8175 2.5 23.75V21.25C2.5 20.5588 1.94 20 1.25 20C0.56 20 0 20.5588 0 21.25V23.75C0 27.1963 2.80375 30 6.25 30H8.75C9.44 30 10 29.4412 10 28.75C10 28.0588 9.44 27.5 8.75 27.5ZM28.75 20C28.06 20 27.5 20.5588 27.5 21.25V23.75C27.5 25.8175 25.8175 27.5 23.75 27.5H21.25C20.56 27.5 20 28.0588 20 28.75C20 29.4412 20.56 30 21.25 30H23.75C27.1963 30 30 27.1963 30 23.75V21.25C30 20.5588 29.44 20 28.75 20ZM23.75 0H21.25C20.56 0 20 0.55875 20 1.25C20 1.94125 20.56 2.5 21.25 2.5H23.75C25.8175 2.5 27.5 4.1825 27.5 6.25V8.75C27.5 9.44125 28.06 10 28.75 10C29.44 10 30 9.44125 30 8.75V6.25C30 2.80375 27.1963 0 23.75 0ZM1.25 10C1.94 10 2.5 9.44125 2.5 8.75V6.25C2.5 4.1825 4.1825 2.5 6.25 2.5H8.75C9.44 2.5 10 1.94125 10 1.25C10 0.55875 9.44 0 8.75 0H6.25C2.80375 0 0 2.80375 0 6.25V8.75C0 9.44125 0.56 10 1.25 10Z" fill="#07B96A"/>
</g>
<defs>
<clipPath id="clip0_120_357">
<rect width="30" height="30" fill="white"/>
</clipPath>
</defs>
</svg>
