<svg width="30" height="30" viewBox="0 0 30 30" fill="none" xmlns="http://www.w3.org/2000/svg">
<g clip-path="url(#clip0_120_350)">
<path fill-rule="evenodd" clip-rule="evenodd" d="M14.0658 9.16877H16.5272V12.9859C15.5835 13.4329 14.7466 14.069 14.0658 14.8448V9.16877ZM18.3769 12.3872C18.8289 12.3033 19.2949 12.2589 19.771 12.2589C20.1334 12.2589 20.4894 12.2849 20.8382 12.334V5.83818H18.3769V12.3872ZM2.22411 13.3008C2.32453 13.3008 2.42463 13.2656 2.50477 13.1941L10.8322 5.7837L14.8381 7.48162C14.9962 7.54878 15.1796 7.51298 15.3016 7.39102L20.2835 2.40939L20.2576 2.58647C20.2237 2.8174 20.384 3.03186 20.6143 3.06607C20.6348 3.06892 20.6561 3.07051 20.676 3.07051C20.8826 3.07051 21.0628 2.91909 21.0939 2.70907L21.3045 1.27027C21.3238 1.13817 21.2798 1.00481 21.1854 0.910408C21.1065 0.831848 21.0007 0.788132 20.8911 0.786865H20.88C20.8617 0.786865 20.8436 0.788449 20.8252 0.7913L19.3861 1.00196C19.1558 1.03585 18.9958 1.25031 19.0294 1.48124C19.0636 1.71217 19.2781 1.87182 19.509 1.83825L19.6864 1.81227L14.9053 6.59306L10.9155 4.90211C10.7654 4.83812 10.5924 4.86695 10.4704 4.97528L1.94376 12.5627C1.76922 12.7179 1.75338 12.985 1.9086 13.1592C1.99223 13.2533 2.10785 13.3008 2.22411 13.3008ZM9.75484 17.7091H12.2165V8.45729H9.75484V17.7091ZM5.44382 17.7091H7.90549V12.2548H5.44382V17.7091ZM1.13281 17.7091H3.59417V14.5758H1.13281V17.7091ZM25.8053 25.0085L24.9322 25.8816C24.923 25.8908 24.9142 25.9 24.9053 25.9091L24.0525 25.0564C22.8881 26.0146 21.3967 26.5902 19.7707 26.5902C16.0466 26.5902 13.0278 23.5713 13.0278 19.8473C13.0278 16.1233 16.0466 13.1044 19.7707 13.1044C23.4947 13.1044 26.5136 16.1233 26.5136 19.8473C26.5136 21.4733 25.938 22.9647 24.9797 24.1292L25.8325 24.9819C25.8233 24.9908 25.8141 24.9997 25.8049 25.0089L25.8053 25.0085ZM24.841 19.847C24.841 17.0467 22.571 14.7767 19.7707 14.7767C16.9704 14.7767 14.7003 17.0467 14.7003 19.847C14.7003 22.6473 16.9704 24.9173 19.7707 24.9173C22.571 24.9173 24.841 22.6473 24.841 19.847ZM30.3627 28.7522L27.2165 25.606C26.9925 25.382 26.6267 25.382 26.4027 25.606L25.5297 26.479C25.3057 26.703 25.3057 27.0689 25.5297 27.2928L28.6759 30.439C29.1397 30.9028 29.8986 30.9028 30.3627 30.439C30.8265 29.9753 30.8268 29.2163 30.3627 28.7522ZM23.9059 19.8476C22.895 20.9912 21.4176 21.7125 19.7713 21.7125C18.125 21.7125 16.6476 20.9912 15.6367 19.8476C16.6476 18.7041 18.125 17.9828 19.7713 17.9828C21.4176 17.9828 22.895 18.7041 23.9059 19.8476ZM21.5902 19.8476C21.5902 18.8431 20.7758 18.0287 19.7713 18.0287C19.5987 18.0287 19.4317 18.0528 19.2737 18.0978C19.6281 18.24 19.8781 18.5865 19.8781 18.9917C19.8781 19.5236 19.4469 19.9547 18.9151 19.9547C18.5099 19.9547 18.1633 19.7044 18.0211 19.3503C17.9761 19.5084 17.9521 19.6753 17.9521 19.8479C17.9521 20.8524 18.7665 21.6669 19.771 21.6669C20.7755 21.6669 21.5899 20.8524 21.5899 19.8479L21.5902 19.8476Z" fill="#07B96A"/>
</g>
<defs>
<clipPath id="clip0_120_350">
<rect width="29.703" height="30" fill="white" transform="translate(0.148438)"/>
</clipPath>
</defs>
</svg>
