<svg width="30" height="30" viewBox="0 0 30 30" fill="none" xmlns="http://www.w3.org/2000/svg">
<g clip-path="url(#clip0_120_343)">
<path d="M0.00887458 11.0275C0.00387457 11.1012 0.00762458 10.9525 0.00887458 11.0275V11.0275ZM29.5401 25.93C29.3089 26.3312 28.8889 26.5563 28.4551 26.5563C28.2439 26.5563 28.0289 26.5025 27.8326 26.3888L26.6114 25.685C25.8551 26.5 24.8701 27.0925 23.7501 27.3487V28.75C23.7501 29.4412 23.1901 30 22.5001 30C21.8101 30 21.2501 29.4412 21.2501 28.75V27.3487C20.1301 27.0925 19.1439 26.5013 18.3889 25.685L17.1676 26.3888C16.9714 26.5025 16.7564 26.5563 16.5451 26.5563C16.1126 26.5563 15.6914 26.3312 15.4601 25.93C15.1164 25.3312 15.3214 24.5675 15.9201 24.2237L17.1489 23.5163C16.9876 22.9937 16.8764 22.45 16.8764 21.875C16.8764 21.3 16.9876 20.7563 17.1489 20.2337L15.9201 19.5263C15.3214 19.1825 15.1164 18.4175 15.4601 17.82C15.8051 17.2212 16.5701 17.0163 17.1676 17.3612L18.3889 18.065C19.1451 17.25 20.1301 16.6575 21.2501 16.4013V15C21.2501 14.3088 21.8101 13.75 22.5001 13.75C23.1901 13.75 23.7501 14.3088 23.7501 15V16.4013C24.8701 16.6575 25.8564 17.2487 26.6114 18.065L27.8326 17.3612C28.4314 17.0175 29.1951 17.2225 29.5401 17.82C29.8839 18.4187 29.6789 19.1825 29.0801 19.5263L27.8514 20.2337C28.0126 20.7563 28.1239 21.3 28.1239 21.875C28.1239 22.45 28.0126 22.9937 27.8514 23.5163L29.0801 24.2237C29.6789 24.5675 29.8839 25.3325 29.5401 25.93ZM25.6251 21.875C25.6251 20.1513 24.2226 18.75 22.5001 18.75C20.7776 18.75 19.3751 20.1513 19.3751 21.875C19.3751 23.5987 20.7776 25 22.5001 25C24.2226 25 25.6251 23.5987 25.6251 21.875ZM8.75012 6.25H15.0001C16.3814 6.25 17.5001 7.36875 17.5001 8.75V12.5C17.5001 13.19 18.0601 13.75 18.7501 13.75C19.4401 13.75 20.0001 13.19 20.0001 12.5V8.75C20.0001 5.98875 17.7614 3.75 15.0001 3.75H14.1739C14.2751 3.10125 14.3764 2.43625 14.3751 2.39625C14.3489 1.0425 13.3801 0.0525 11.6526 0C10.3026 0.09625 9.28512 1.26875 9.38137 2.62C9.40137 2.85 9.47512 3.30125 9.55387 3.75H8.75012C5.98887 3.75 3.75012 5.98875 3.75012 8.75V9.57375C3.10762 9.47375 2.45387 9.37375 2.41512 9.375C1.06137 9.40125 -0.0136254 10.5212 0.0126246 11.875C-0.0348754 13.465 1.28762 14.465 2.63762 14.3687C2.86512 14.35 3.30637 14.2775 3.75012 14.2V15.0013C3.75012 17.7625 5.98887 20.0012 8.75012 20.0012H10.6101C11.4239 20.0012 12.1339 19.4688 12.3764 18.6912C12.6951 17.6725 13.1614 16.72 13.7526 15.8588C14.0601 15.4113 14.0889 14.7913 13.7039 14.4075C13.3076 14.0125 12.7151 13.7513 11.8739 13.7513C10.2389 13.7513 9.37387 15.0013 9.38013 16.3888C9.38013 16.6163 9.47137 17.0575 9.54887 17.5013H8.74887C7.36762 17.5013 6.24887 16.3825 6.24887 15.0013V8.75125C6.24887 7.37 7.36762 6.25125 8.74887 6.25125L8.75012 6.25Z" fill="#07B96A"/>
</g>
<defs>
<clipPath id="clip0_120_343">
<rect width="30" height="30" fill="white"/>
</clipPath>
</defs>
</svg>
