<svg width="30" height="30" viewBox="0 0 30 30" fill="none" xmlns="http://www.w3.org/2000/svg">
<g clip-path="url(#clip0_120_364)">
<path d="M14.9863 7.48628C12.2288 7.48628 9.98625 9.72878 9.98625 12.4863C9.98625 15.2438 12.2288 17.4863 14.9863 17.4863C17.7438 17.4863 19.9863 15.2438 19.9863 12.4863C19.9863 9.72878 17.7438 7.48628 14.9863 7.48628ZM14.9863 14.9863C13.6075 14.9863 12.4863 13.865 12.4863 12.4863C12.4863 11.1075 13.6075 9.98628 14.9863 9.98628C16.365 9.98628 17.4863 11.1075 17.4863 12.4863C17.4863 13.865 16.365 14.9863 14.9863 14.9863ZM29.985 23.1175C29.9213 22.5313 29.6563 21.9775 29.2375 21.555L25.0325 17.3513C25.035 17.3625 25.0375 17.3738 25.0325 17.3513C25.0313 17.3438 25.0288 17.335 25.0288 17.3388C24.9538 16.9838 25.095 16.4675 25.4275 16.2538C26.0513 15.8513 26.5563 15.305 26.9288 14.6325C27.285 13.9888 27.4725 13.2513 27.4688 12.5063C27.4725 11.7513 27.2863 11.0125 26.9288 10.37C26.5563 9.69753 26.0513 9.15128 25.4263 8.74878C25.0913 8.53253 24.92 8.14878 25.0013 7.79253C25.1688 7.05128 25.1438 6.29253 24.9263 5.53628C24.515 4.10128 23.3675 2.95503 21.9325 2.54378C21.1763 2.32753 20.4175 2.30003 19.6775 2.47003C19.3213 2.54878 18.9388 2.37878 18.7225 2.04503C18.3213 1.42128 17.775 0.916279 17.1013 0.542529C15.7963 -0.182471 14.1738 -0.182471 12.8675 0.542529C12.1938 0.916279 11.6488 1.42128 11.2475 2.04378C11.0313 2.37878 10.65 2.55003 10.2913 2.47003C9.5525 2.30128 8.79375 2.32628 8.0375 2.54378C6.6025 2.95503 5.455 4.10253 5.04375 5.53628C4.82625 6.29378 4.80125 7.05253 4.96875 7.79253C5.04875 8.14753 4.87875 8.53128 4.5425 8.74878C3.91875 9.15253 3.41375 9.69753 3.04125 10.37C2.685 11.0138 2.4975 11.7513 2.50125 12.4963C2.4975 13.2513 2.68375 13.99 3.04 14.6325C3.4125 15.305 3.91875 15.8513 4.54375 16.255C4.875 16.4688 5.01125 17.0075 4.9375 17.3625C4.9375 17.365 4.9375 17.3688 4.935 17.3763C4.92875 17.4038 4.93125 17.3913 4.935 17.3763L0.751254 21.56C0.336254 21.9788 0.0725045 22.5325 0.00750449 23.1175C-0.149996 24.55 0.887505 25.845 2.32125 26.005L3.82125 26.1713L3.985 27.6475C4.045 28.245 4.31125 28.8088 4.7375 29.235C5.015 29.5125 5.35625 29.7263 5.71375 29.85C6.00125 29.9538 6.29875 30.0025 6.595 30.0025C7.28125 30.0025 7.9525 29.7338 8.43875 29.2363L13.0963 24.5775C13.69 24.8613 14.3388 25.0038 14.9875 25.0038C15.6413 25.0038 16.2938 24.8588 16.8913 24.57L21.545 29.2238C22.04 29.73 22.7163 30.0025 23.4025 30.0025C23.6938 30.0025 23.9875 29.9538 24.27 29.8525C24.6388 29.7238 24.98 29.5113 25.2575 29.2325C25.6838 28.805 25.95 28.2413 26.0063 27.6613L26.1725 26.1713L27.6725 26.005C29.105 25.8463 30.1438 24.5513 29.9863 23.1188L29.985 23.1175ZM6.55625 27.4938L6.4775 27.385L6.08625 23.905L2.5975 23.5175C2.53375 23.5113 2.48625 23.4525 2.5225 23.3225L5.44125 20.4038C6 21.3875 6.93375 22.14 8.03875 22.4563C8.795 22.6725 9.555 22.6988 10.2938 22.53C10.6288 22.4525 10.9913 22.6025 11.2125 22.9025L6.55625 27.4925V27.4938ZM16.6238 21.6013C16.4475 21.875 16.2013 22.1 15.8913 22.2725C15.3425 22.5763 14.6313 22.5763 14.0813 22.2725C13.7725 22.1013 13.5263 21.875 13.35 21.6013C12.7025 20.6 11.6038 20.0125 10.4663 20.0125C10.225 20.0125 9.98125 20.0388 9.74 20.0938C9.415 20.1663 9.07375 20.1538 8.72625 20.0538C8.1225 19.8813 7.62 19.3788 7.4475 18.775C7.3475 18.4275 7.335 18.0863 7.40875 17.7613C7.72125 16.3863 7.11501 14.9363 5.90125 14.1525C5.62625 13.975 5.4 13.7288 5.22875 13.4188C5.08 13.15 5.00125 12.8338 5.0025 12.4938C5.00125 12.165 5.08 11.8488 5.22875 11.58C5.4 11.2713 5.625 11.025 5.9 10.8475C7.115 10.0638 7.72 8.61378 7.40875 7.23753C7.335 6.91253 7.34875 6.57253 7.44875 6.22378C7.62125 5.62003 8.12375 5.11878 8.7275 4.94628C9.075 4.84753 9.41625 4.83378 9.74 4.90628C11.1125 5.21878 12.5663 4.61378 13.35 3.39753C13.5263 3.12378 13.7725 2.89878 14.0813 2.72628C14.63 2.42253 15.3413 2.42253 15.8913 2.72628C16.2013 2.89878 16.4475 3.12378 16.6238 3.39753C17.4075 4.61253 18.8588 5.21628 20.2325 4.90503C20.5588 4.83253 20.8988 4.84628 21.2463 4.94503C21.85 5.11753 22.3525 5.62003 22.5263 6.22378C22.6263 6.57128 22.6388 6.91253 22.565 7.23753C22.2525 8.61253 22.8575 10.0638 24.0725 10.8463C24.3475 11.0238 24.5725 11.27 24.7438 11.5788C24.8925 11.8488 24.9713 12.165 24.97 12.5038C24.9713 12.8325 24.8925 13.1488 24.7438 13.4175C24.5725 13.7263 24.3475 13.9738 24.0738 14.15C22.8588 14.9338 22.2525 16.385 22.565 17.7588C22.6388 18.085 22.6263 18.4263 22.5263 18.7738C22.3525 19.3775 21.85 19.88 21.2463 20.0525C20.9025 20.1525 20.5613 20.1663 20.235 20.0925C18.8625 19.7813 17.41 20.3863 16.625 21.6013H16.6238ZM27.3963 23.5175L23.9075 23.905L23.5213 27.3838L23.4475 27.49L23.3275 27.4638H23.3225L18.7613 22.9038C18.9825 22.6038 19.3425 22.4525 19.6813 22.53C20.4213 22.6988 21.1788 22.6713 21.935 22.4563C23.0413 22.14 23.9763 21.385 24.535 20.4L27.5 23.39C27.5075 23.4525 27.46 23.5113 27.3963 23.5188V23.5175ZM4.93625 17.3738C4.93875 17.3638 4.94125 17.3538 4.94 17.36C4.94 17.365 4.93875 17.37 4.9375 17.3738H4.93625Z" fill="#07B96A"/>
</g>
<defs>
<clipPath id="clip0_120_364">
<rect width="30" height="30" fill="white"/>
</clipPath>
</defs>
</svg>
